{
    "asset" : {
        "generator" : "Khronos glTF Blender I/O v0.9.36",
        "version" : "2.0"
    },
    "scene" : 0,
    "scenes" : [
        {
            "name" : "Scene",
            "nodes" : [
                0,
                1,
                2,
                3,
                4,
                5,
                6,
                7,
                8,
                9,
                10,
                11,
                12,
                13,
                14,
                15,
                16
            ]
        }
    ],
    "nodes" : [
        {
            "name" : "Light",
            "rotation" : [
                0.16907575726509094,
                0.7558803558349609,
                -0.27217137813568115,
                0.570947527885437
            ],
            "translation" : [
                4.076245307922363,
                5.903861999511719,
                -1.0054539442062378
            ]
        },
        {
            "name" : "Camera",
            "rotation" : [
                0.483536034822464,
                0.33687159419059753,
                -0.20870360732078552,
                0.7804827094078064
            ],
            "translation" : [
                7.358891487121582,
                4.958309173583984,
                6.925790786743164
            ]
        },
        {
            "name" : "Light.001",
            "rotation" : [
                0.5232754945755005,
                0.34203392267227173,
                -0.7269423604011536,
                0.284166157245636
            ],
            "translation" : [
                4.076245307922363,
                5.903862476348877,
                -1.0054532289505005
            ]
        },
        {
            "name" : "Camera.001",
            "rotation" : [
                0.8937963247299194,
                0.09062855690717697,
                -0.3857799172401428,
                0.20997287333011627
            ],
            "translation" : [
                7.358891487121582,
                4.958308696746826,
                6.925792217254639
            ]
        },
        {
            "mesh" : 0,
            "name" : "Layer0_001",
            "rotation" : [
                0.6958390474319458,
                -0.1257302314043045,
                0.12573020160198212,
                0.6958389282226562
            ],
            "scale" : [
                0.02540000155568123,
                0.025400003418326378,
                0.025400003418326378
            ],
            "translation" : [
                0.11479697376489639,
                1.3988568782806396,
                0.055160462856292725
            ]
        },
        {
            "name" : "Light.002",
            "rotation" : [
                -0.5709477066993713,
                0.2721712291240692,
                0.7558802962303162,
                0.16907566785812378
            ],
            "translation" : [
                4.076245307922363,
                5.903862953186035,
                -1.0054525136947632
            ]
        },
        {
            "name" : "Camera.002",
            "rotation" : [
                -0.7804825901985168,
                0.20870345830917358,
                0.33687177300453186,
                0.4835361838340759
            ],
            "translation" : [
                7.358891487121582,
                4.958308219909668,
                6.925793647766113
            ]
        },
        {
            "name" : "Light.003",
            "rotation" : [
                -0.2841666042804718,
                0.7269421815872192,
                0.3420339822769165,
                0.5232755541801453
            ],
            "translation" : [
                4.076245307922363,
                5.903863430023193,
                -1.0054517984390259
            ]
        },
        {
            "name" : "Camera.003",
            "rotation" : [
                -0.20997296273708344,
                0.3857799470424652,
                0.09062869846820831,
                0.8937962055206299
            ],
            "translation" : [
                7.358891487121582,
                4.95830774307251,
                6.925795078277588
            ]
        },
        {
            "name" : "Light.004",
            "rotation" : [
                0.16907541453838348,
                0.7558804154396057,
                -0.27217110991477966,
                0.5709476470947266
            ],
            "translation" : [
                4.076245307922363,
                5.903863906860352,
                -1.0054510831832886
            ]
        },
        {
            "name" : "Camera.004",
            "rotation" : [
                0.48353615403175354,
                0.33687183260917664,
                -0.20870345830917358,
                0.7804827094078064
            ],
            "translation" : [
                7.358891487121582,
                4.958307266235352,
                6.9257965087890625
            ]
        },
        {
            "name" : "Light.005",
            "rotation" : [
                0.16907541453838348,
                0.7558804154396057,
                -0.27217110991477966,
                0.5709476470947266
            ],
            "translation" : [
                4.076245307922363,
                5.903863906860352,
                -1.0054510831832886
            ]
        },
        {
            "name" : "Camera.005",
            "rotation" : [
                0.48353615403175354,
                0.33687183260917664,
                -0.20870345830917358,
                0.7804827094078064
            ],
            "translation" : [
                7.358891487121582,
                4.958307266235352,
                6.9257965087890625
            ]
        },
        {
            "name" : "Light.006",
            "rotation" : [
                0.16907541453838348,
                0.7558804154396057,
                -0.27217110991477966,
                0.5709476470947266
            ],
            "translation" : [
                4.076245307922363,
                5.903863906860352,
                -1.0054510831832886
            ]
        },
        {
            "name" : "Camera.006",
            "rotation" : [
                0.48353615403175354,
                0.33687183260917664,
                -0.20870345830917358,
                0.7804827094078064
            ],
            "translation" : [
                7.358891487121582,
                4.958307266235352,
                6.9257965087890625
            ]
        },
        {
            "name" : "Light.007",
            "rotation" : [
                0.16907541453838348,
                0.7558804154396057,
                -0.27217110991477966,
                0.5709476470947266
            ],
            "translation" : [
                4.076245307922363,
                5.903863906860352,
                -1.0054510831832886
            ]
        },
        {
            "name" : "Camera.007",
            "rotation" : [
                0.48353615403175354,
                0.33687183260917664,
                -0.20870345830917358,
                0.7804827094078064
            ],
            "translation" : [
                7.358891487121582,
                4.958307266235352,
                6.9257965087890625
            ]
        }
    ],
    "materials" : [
        {
            "doubleSided" : true,
            "name" : "dbl_Layer0_002",
            "pbrMetallicRoughness" : {
                "baseColorTexture" : {
                    "index" : 0,
                    "texCoord" : 0
                },
                "metallicFactor" : 0.16363635659217834,
                "roughnessFactor" : 0.5
            }
        },
        {
            "doubleSided" : true,
            "name" : "dbl_Layer0_003",
            "pbrMetallicRoughness" : {
                "baseColorTexture" : {
                    "index" : 1,
                    "texCoord" : 0
                },
                "metallicFactor" : 0.15000000596046448,
                "roughnessFactor" : 0.7590909004211426
            }
        },
        {
            "doubleSided" : true,
            "name" : "dbl_Layer0_004",
            "pbrMetallicRoughness" : {
                "baseColorFactor" : [
                    1,
                    1,
                    1,
                    1
                ],
                "metallicFactor" : 0,
                "roughnessFactor" : 0.5
            }
        },
        {
            "doubleSided" : true,
            "name" : "dbl_Layer0_005",
            "pbrMetallicRoughness" : {
                "baseColorFactor" : [
                    1,
                    1,
                    1,
                    1
                ],
                "metallicFactor" : 0,
                "roughnessFactor" : 0.5
            }
        },
        {
            "doubleSided" : true,
            "name" : "dbl_Layer0_006",
            "pbrMetallicRoughness" : {
                "baseColorFactor" : [
                    1,
                    1,
                    1,
                    1
                ],
                "metallicFactor" : 0,
                "roughnessFactor" : 0.5
            }
        },
        {
            "doubleSided" : true,
            "name" : "dbl_Layer0_008",
            "pbrMetallicRoughness" : {
                "baseColorFactor" : [
                    1,
                    1,
                    1,
                    1
                ],
                "metallicFactor" : 0,
                "roughnessFactor" : 0.5
            }
        },
        {
            "doubleSided" : true,
            "name" : "dbl_Layer0_009",
            "pbrMetallicRoughness" : {
                "baseColorFactor" : [
                    1,
                    1,
                    1,
                    1
                ],
                "metallicFactor" : 0,
                "roughnessFactor" : 0.5
            }
        }
    ],
    "meshes" : [
        {
            "name" : "Layer0_001Mesh",
            "primitives" : [
                {
                    "attributes" : {
                        "POSITION" : 0,
                        "NORMAL" : 1,
                        "TEXCOORD_0" : 2,
                        "TEXCOORD_1" : 3
                    },
                    "indices" : 4,
                    "material" : 0
                },
                {
                    "attributes" : {
                        "POSITION" : 5,
                        "NORMAL" : 6,
                        "TEXCOORD_0" : 7,
                        "TEXCOORD_1" : 8
                    },
                    "indices" : 9,
                    "material" : 1
                },
                {
                    "attributes" : {
                        "POSITION" : 10,
                        "NORMAL" : 11,
                        "TEXCOORD_0" : 12,
                        "TEXCOORD_1" : 13
                    },
                    "indices" : 14,
                    "material" : 2
                },
                {
                    "attributes" : {
                        "POSITION" : 15,
                        "NORMAL" : 16,
                        "TEXCOORD_0" : 17,
                        "TEXCOORD_1" : 18
                    },
                    "indices" : 19,
                    "material" : 3
                },
                {
                    "attributes" : {
                        "POSITION" : 20,
                        "NORMAL" : 21,
                        "TEXCOORD_0" : 22,
                        "TEXCOORD_1" : 23
                    },
                    "indices" : 24,
                    "material" : 4
                },
                {
                    "attributes" : {
                        "POSITION" : 25,
                        "NORMAL" : 26,
                        "TEXCOORD_0" : 27,
                        "TEXCOORD_1" : 28
                    },
                    "indices" : 29,
                    "material" : 5
                },
                {
                    "attributes" : {
                        "POSITION" : 30,
                        "NORMAL" : 31,
                        "TEXCOORD_0" : 32,
                        "TEXCOORD_1" : 33
                    },
                    "indices" : 34,
                    "material" : 6
                }
            ]
        }
    ],
    "textures" : [
        {
            "source" : 0
        },
        {
            "source" : 0
        }
    ],
    "images" : [
        {
            "bufferView" : 5,
            "mimeType" : "image/jpeg",
            "name" : "Metal-Texture-Background"
        }
    ],
    "accessors" : [
        {
            "bufferView" : 0,
            "componentType" : 5126,
            "count" : 141,
            "max" : [
                5.212761878967285,
                18.38410186767578,
                31.578399658203125
            ],
            "min" : [
                -5.335525035858154,
                -19.632511138916016,
                -31.692907333374023
            ],
            "type" : "VEC3"
        },
        {
            "bufferView" : 1,
            "componentType" : 5126,
            "count" : 141,
            "type" : "VEC3"
        },
        {
            "bufferView" : 2,
            "componentType" : 5126,
            "count" : 141,
            "type" : "VEC2"
        },
        {
            "bufferView" : 3,
            "componentType" : 5126,
            "count" : 141,
            "type" : "VEC2"
        },
        {
            "bufferView" : 4,
            "componentType" : 5123,
            "count" : 147,
            "type" : "SCALAR"
        },
        {
            "bufferView" : 6,
            "componentType" : 5126,
            "count" : 171,
            "max" : [
                5.212761878967285,
                18.38410186767578,
                31.692916870117188
            ],
            "min" : [
                -5.335525035858154,
                -19.632511138916016,
                -31.692907333374023
            ],
            "type" : "VEC3"
        },
        {
            "bufferView" : 7,
            "componentType" : 5126,
            "count" : 171,
            "type" : "VEC3"
        },
        {
            "bufferView" : 8,
            "componentType" : 5126,
            "count" : 171,
            "type" : "VEC2"
        },
        {
            "bufferView" : 9,
            "componentType" : 5126,
            "count" : 171,
            "type" : "VEC2"
        },
        {
            "bufferView" : 10,
            "componentType" : 5123,
            "count" : 171,
            "type" : "SCALAR"
        },
        {
            "bufferView" : 11,
            "componentType" : 5126,
            "count" : 246,
            "max" : [
                4.125593185424805,
                3.7797739505767822,
                -20.4102783203125
            ],
            "min" : [
                0.0676570013165474,
                -4.595225811004639,
                -28.91320037841797
            ],
            "type" : "VEC3"
        },
        {
            "bufferView" : 12,
            "componentType" : 5126,
            "count" : 246,
            "type" : "VEC3"
        },
        {
            "bufferView" : 13,
            "componentType" : 5126,
            "count" : 246,
            "type" : "VEC2"
        },
        {
            "bufferView" : 14,
            "componentType" : 5126,
            "count" : 246,
            "type" : "VEC2"
        },
        {
            "bufferView" : 15,
            "componentType" : 5123,
            "count" : 342,
            "type" : "SCALAR"
        },
        {
            "bufferView" : 16,
            "componentType" : 5126,
            "count" : 24,
            "max" : [
                -0.7803890109062195,
                18.38410186767578,
                36.122047424316406
            ],
            "min" : [
                -5.335525035858154,
                -19.632511138916016,
                -18.12299156188965
            ],
            "type" : "VEC3"
        },
        {
            "bufferView" : 17,
            "componentType" : 5126,
            "count" : 24,
            "type" : "VEC3"
        },
        {
            "bufferView" : 18,
            "componentType" : 5126,
            "count" : 24,
            "type" : "VEC2"
        },
        {
            "bufferView" : 19,
            "componentType" : 5126,
            "count" : 24,
            "type" : "VEC2"
        },
        {
            "bufferView" : 20,
            "componentType" : 5123,
            "count" : 24,
            "type" : "SCALAR"
        },
        {
            "bufferView" : 21,
            "componentType" : 5126,
            "count" : 65,
            "max" : [
                5.335525989532471,
                21.06865119934082,
                37.598426818847656
            ],
            "min" : [
                -5.335525989532471,
                -21.884105682373047,
                -37.598426818847656
            ],
            "type" : "VEC3"
        },
        {
            "bufferView" : 22,
            "componentType" : 5126,
            "count" : 65,
            "type" : "VEC3"
        },
        {
            "bufferView" : 23,
            "componentType" : 5126,
            "count" : 65,
            "type" : "VEC2"
        },
        {
            "bufferView" : 24,
            "componentType" : 5126,
            "count" : 65,
            "type" : "VEC2"
        },
        {
            "bufferView" : 25,
            "componentType" : 5123,
            "count" : 81,
            "type" : "SCALAR"
        },
        {
            "bufferView" : 26,
            "componentType" : 5126,
            "count" : 96,
            "max" : [
                4.364713191986084,
                3.7797739505767822,
                -20.337326049804688
            ],
            "min" : [
                0.18721699714660645,
                -4.595225811004639,
                -28.876724243164062
            ],
            "type" : "VEC3"
        },
        {
            "bufferView" : 27,
            "componentType" : 5126,
            "count" : 96,
            "type" : "VEC3"
        },
        {
            "bufferView" : 28,
            "componentType" : 5126,
            "count" : 96,
            "type" : "VEC2"
        },
        {
            "bufferView" : 29,
            "componentType" : 5126,
            "count" : 96,
            "type" : "VEC2"
        },
        {
            "bufferView" : 30,
            "componentType" : 5123,
            "count" : 432,
            "type" : "SCALAR"
        },
        {
            "bufferView" : 31,
            "componentType" : 5126,
            "count" : 84,
            "max" : [
                3.3595869541168213,
                18.38410186767578,
                -18.12299156188965
            ],
            "min" : [
                -0.7803919911384583,
                -19.632511138916016,
                -31.692907333374023
            ],
            "type" : "VEC3"
        },
        {
            "bufferView" : 32,
            "componentType" : 5126,
            "count" : 84,
            "type" : "VEC3"
        },
        {
            "bufferView" : 33,
            "componentType" : 5126,
            "count" : 84,
            "type" : "VEC2"
        },
        {
            "bufferView" : 34,
            "componentType" : 5126,
            "count" : 84,
            "type" : "VEC2"
        },
        {
            "bufferView" : 35,
            "componentType" : 5123,
            "count" : 84,
            "type" : "SCALAR"
        }
    ],
    "bufferViews" : [
        {
            "buffer" : 0,
            "byteLength" : 1692,
            "byteOffset" : 0
        },
        {
            "buffer" : 0,
            "byteLength" : 1692,
            "byteOffset" : 1692
        },
        {
            "buffer" : 0,
            "byteLength" : 1128,
            "byteOffset" : 3384
        },
        {
            "buffer" : 0,
            "byteLength" : 1128,
            "byteOffset" : 4512
        },
        {
            "buffer" : 0,
            "byteLength" : 294,
            "byteOffset" : 5640
        },
        {
            "buffer" : 0,
            "byteLength" : 111368,
            "byteOffset" : 5936
        },
        {
            "buffer" : 0,
            "byteLength" : 2052,
            "byteOffset" : 117304
        },
        {
            "buffer" : 0,
            "byteLength" : 2052,
            "byteOffset" : 119356
        },
        {
            "buffer" : 0,
            "byteLength" : 1368,
            "byteOffset" : 121408
        },
        {
            "buffer" : 0,
            "byteLength" : 1368,
            "byteOffset" : 122776
        },
        {
            "buffer" : 0,
            "byteLength" : 342,
            "byteOffset" : 124144
        },
        {
            "buffer" : 0,
            "byteLength" : 2952,
            "byteOffset" : 124488
        },
        {
            "buffer" : 0,
            "byteLength" : 2952,
            "byteOffset" : 127440
        },
        {
            "buffer" : 0,
            "byteLength" : 1968,
            "byteOffset" : 130392
        },
        {
            "buffer" : 0,
            "byteLength" : 1968,
            "byteOffset" : 132360
        },
        {
            "buffer" : 0,
            "byteLength" : 684,
            "byteOffset" : 134328
        },
        {
            "buffer" : 0,
            "byteLength" : 288,
            "byteOffset" : 135012
        },
        {
            "buffer" : 0,
            "byteLength" : 288,
            "byteOffset" : 135300
        },
        {
            "buffer" : 0,
            "byteLength" : 192,
            "byteOffset" : 135588
        },
        {
            "buffer" : 0,
            "byteLength" : 192,
            "byteOffset" : 135780
        },
        {
            "buffer" : 0,
            "byteLength" : 48,
            "byteOffset" : 135972
        },
        {
            "buffer" : 0,
            "byteLength" : 780,
            "byteOffset" : 136020
        },
        {
            "buffer" : 0,
            "byteLength" : 780,
            "byteOffset" : 136800
        },
        {
            "buffer" : 0,
            "byteLength" : 520,
            "byteOffset" : 137580
        },
        {
            "buffer" : 0,
            "byteLength" : 520,
            "byteOffset" : 138100
        },
        {
            "buffer" : 0,
            "byteLength" : 162,
            "byteOffset" : 138620
        },
        {
            "buffer" : 0,
            "byteLength" : 1152,
            "byteOffset" : 138784
        },
        {
            "buffer" : 0,
            "byteLength" : 1152,
            "byteOffset" : 139936
        },
        {
            "buffer" : 0,
            "byteLength" : 768,
            "byteOffset" : 141088
        },
        {
            "buffer" : 0,
            "byteLength" : 768,
            "byteOffset" : 141856
        },
        {
            "buffer" : 0,
            "byteLength" : 864,
            "byteOffset" : 142624
        },
        {
            "buffer" : 0,
            "byteLength" : 1008,
            "byteOffset" : 143488
        },
        {
            "buffer" : 0,
            "byteLength" : 1008,
            "byteOffset" : 144496
        },
        {
            "buffer" : 0,
            "byteLength" : 672,
            "byteOffset" : 145504
        },
        {
            "buffer" : 0,
            "byteLength" : 672,
            "byteOffset" : 146176
        },
        {
            "buffer" : 0,
            "byteLength" : 168,
            "byteOffset" : 146848
        }
    ],
    "buffers" : [
        {
            "byteLength" : 147016,
            "uri" : "data:application/octet-stream;base64,"
        }
    ]
}
