{
    "asset" : {
        "generator" : "Khronos glTF Blender I/O v0.9.36",
        "version" : "2.0"
    },
    "scene" : 0,
    "scenes" : [
        {
            "name" : "Scene",
            "nodes" : [
                0,
                1,
                2
            ]
        }
    ],
    "nodes" : [
        {
            "name" : "Light",
            "rotation" : [
                0.16907575726509094,
                0.7558803558349609,
                -0.27217137813568115,
                0.570947527885437
            ],
            "translation" : [
                4.076245307922363,
                5.903861999511719,
                -1.0054539442062378
            ]
        },
        {
            "name" : "Camera",
            "rotation" : [
                0.483536034822464,
                0.33687159419059753,
                -0.20870360732078552,
                0.7804827094078064
            ],
            "translation" : [
                7.358891487121582,
                4.958309173583984,
                6.925790786743164
            ]
        },
        {
            "mesh" : 0,
            "name" : "Layer0_001.001",
            "scale" : [
                0.02539999969303608,
                0.02539999969303608,
                0.02539999969303608
            ],
            "translation" : [
                -0.13240385055541992,
                0.9550000429153442,
                0
            ]
        }
    ],
    "materials" : [
        {
            "doubleSided" : true,
            "name" : "dbl_Layer0_002.001",
            "pbrMetallicRoughness" : {
                "baseColorFactor" : [
                    1,
                    1,
                    1,
                    1
                ],
                "metallicFactor" : 0,
                "roughnessFactor" : 0.5
            }
        },
        {
            "doubleSided" : true,
            "name" : "dbl_Layer0_003.001",
            "pbrMetallicRoughness" : {
                "baseColorFactor" : [
                    1,
                    1,
                    1,
                    1
                ],
                "metallicFactor" : 0,
                "roughnessFactor" : 0.5
            }
        },
        {
            "doubleSided" : true,
            "name" : "dbl_Layer0_004.001",
            "pbrMetallicRoughness" : {
                "metallicFactor" : 0,
                "roughnessFactor" : 0.5
            }
        },
        {
            "doubleSided" : true,
            "name" : "dbl_Layer0_006.001",
            "pbrMetallicRoughness" : {
                "baseColorFactor" : [
                    1,
                    1,
                    1,
                    1
                ],
                "metallicFactor" : 0,
                "roughnessFactor" : 0.5
            }
        },
        {
            "doubleSided" : true,
            "name" : "dbl_Layer0_007.001",
            "pbrMetallicRoughness" : {
                "baseColorFactor" : [
                    1,
                    1,
                    1,
                    1
                ],
                "metallicFactor" : 0,
                "roughnessFactor" : 0.5
            }
        }
    ],
    "meshes" : [
        {
            "name" : "Layer0_001Mesh.001",
            "primitives" : [
                {
                    "attributes" : {
                        "POSITION" : 0,
                        "NORMAL" : 1,
                        "TEXCOORD_0" : 2,
                        "TEXCOORD_1" : 3
                    },
                    "indices" : 4,
                    "material" : 0
                },
                {
                    "attributes" : {
                        "POSITION" : 5,
                        "NORMAL" : 6,
                        "TEXCOORD_0" : 7,
                        "TEXCOORD_1" : 8
                    },
                    "indices" : 9,
                    "material" : 0
                },
                {
                    "attributes" : {
                        "POSITION" : 10,
                        "NORMAL" : 11,
                        "TEXCOORD_0" : 12,
                        "TEXCOORD_1" : 13
                    },
                    "indices" : 14,
                    "material" : 1
                },
                {
                    "attributes" : {
                        "POSITION" : 15,
                        "NORMAL" : 16,
                        "TEXCOORD_0" : 17,
                        "TEXCOORD_1" : 18
                    },
                    "indices" : 19,
                    "material" : 2
                },
                {
                    "attributes" : {
                        "POSITION" : 20,
                        "NORMAL" : 21,
                        "TEXCOORD_0" : 22,
                        "TEXCOORD_1" : 23
                    },
                    "indices" : 24,
                    "material" : 3
                },
                {
                    "attributes" : {
                        "POSITION" : 25,
                        "NORMAL" : 26,
                        "TEXCOORD_0" : 27,
                        "TEXCOORD_1" : 28
                    },
                    "indices" : 29,
                    "material" : 4
                }
            ]
        }
    ],
    "accessors" : [
        {
            "bufferView" : 0,
            "componentType" : 5126,
            "count" : 51,
            "max" : [
                -1.6086750030517578,
                -13.831619262695312,
                -11.529491424560547
            ],
            "min" : [
                -1.9292160272598267,
                -14.804744720458984,
                -12.520977020263672
            ],
            "type" : "VEC3"
        },
        {
            "bufferView" : 1,
            "componentType" : 5126,
            "count" : 51,
            "type" : "VEC3"
        },
        {
            "bufferView" : 2,
            "componentType" : 5126,
            "count" : 51,
            "type" : "VEC2"
        },
        {
            "bufferView" : 3,
            "componentType" : 5126,
            "count" : 51,
            "type" : "VEC2"
        },
        {
            "bufferView" : 4,
            "componentType" : 5123,
            "count" : 216,
            "type" : "SCALAR"
        },
        {
            "bufferView" : 5,
            "componentType" : 5126,
            "count" : 46,
            "max" : [
                2.862372875213623,
                -10.440589904785156,
                18.38410186767578
            ],
            "min" : [
                -3.442202091217041,
                -31.578399658203125,
                -19.632511138916016
            ],
            "type" : "VEC3"
        },
        {
            "bufferView" : 6,
            "componentType" : 5126,
            "count" : 46,
            "type" : "VEC3"
        },
        {
            "bufferView" : 7,
            "componentType" : 5126,
            "count" : 46,
            "type" : "VEC2"
        },
        {
            "bufferView" : 8,
            "componentType" : 5126,
            "count" : 46,
            "type" : "VEC2"
        },
        {
            "bufferView" : 9,
            "componentType" : 5123,
            "count" : 84,
            "type" : "SCALAR"
        },
        {
            "bufferView" : 10,
            "componentType" : 5126,
            "count" : 73,
            "max" : [
                2.862372875213623,
                -10.440589904785156,
                18.38410186767578
            ],
            "min" : [
                -4.615286827087402,
                -36.122047424316406,
                -19.632511138916016
            ],
            "type" : "VEC3"
        },
        {
            "bufferView" : 11,
            "componentType" : 5126,
            "count" : 73,
            "type" : "VEC3"
        },
        {
            "bufferView" : 12,
            "componentType" : 5126,
            "count" : 73,
            "type" : "VEC2"
        },
        {
            "bufferView" : 13,
            "componentType" : 5126,
            "count" : 73,
            "type" : "VEC2"
        },
        {
            "bufferView" : 14,
            "componentType" : 5123,
            "count" : 114,
            "type" : "SCALAR"
        },
        {
            "bufferView" : 15,
            "componentType" : 5126,
            "count" : 8,
            "max" : [
                0.27406299114227295,
                -12.245092391967773,
                -10.999107360839844
            ],
            "min" : [
                -1.9112930297851562,
                -15.86024284362793,
                -16.385723114013672
            ],
            "type" : "VEC3"
        },
        {
            "bufferView" : 16,
            "componentType" : 5126,
            "count" : 8,
            "type" : "VEC3"
        },
        {
            "bufferView" : 17,
            "componentType" : 5126,
            "count" : 8,
            "type" : "VEC2"
        },
        {
            "bufferView" : 18,
            "componentType" : 5126,
            "count" : 8,
            "type" : "VEC2"
        },
        {
            "bufferView" : 19,
            "componentType" : 5123,
            "count" : 18,
            "type" : "SCALAR"
        },
        {
            "bufferView" : 20,
            "componentType" : 5126,
            "count" : 18,
            "max" : [
                -4.258096218109131,
                -31.692916870117188,
                21.068647384643555
            ],
            "min" : [
                -4.615287780761719,
                -37.598426818847656,
                -21.884105682373047
            ],
            "type" : "VEC3"
        },
        {
            "bufferView" : 21,
            "componentType" : 5126,
            "count" : 18,
            "type" : "VEC3"
        },
        {
            "bufferView" : 22,
            "componentType" : 5126,
            "count" : 18,
            "type" : "VEC2"
        },
        {
            "bufferView" : 23,
            "componentType" : 5126,
            "count" : 18,
            "type" : "VEC2"
        },
        {
            "bufferView" : 24,
            "componentType" : 5123,
            "count" : 18,
            "type" : "SCALAR"
        },
        {
            "bufferView" : 25,
            "componentType" : 5126,
            "count" : 49,
            "max" : [
                -0.28296101093292236,
                -10.440589904785156,
                18.38410186767578
            ],
            "min" : [
                -2.856052875518799,
                -19.900354385375977,
                -19.632511138916016
            ],
            "type" : "VEC3"
        },
        {
            "bufferView" : 26,
            "componentType" : 5126,
            "count" : 49,
            "type" : "VEC3"
        },
        {
            "bufferView" : 27,
            "componentType" : 5126,
            "count" : 49,
            "type" : "VEC2"
        },
        {
            "bufferView" : 28,
            "componentType" : 5126,
            "count" : 49,
            "type" : "VEC2"
        },
        {
            "bufferView" : 29,
            "componentType" : 5123,
            "count" : 111,
            "type" : "SCALAR"
        }
    ],
    "bufferViews" : [
        {
            "buffer" : 0,
            "byteLength" : 612,
            "byteOffset" : 0
        },
        {
            "buffer" : 0,
            "byteLength" : 612,
            "byteOffset" : 612
        },
        {
            "buffer" : 0,
            "byteLength" : 408,
            "byteOffset" : 1224
        },
        {
            "buffer" : 0,
            "byteLength" : 408,
            "byteOffset" : 1632
        },
        {
            "buffer" : 0,
            "byteLength" : 432,
            "byteOffset" : 2040
        },
        {
            "buffer" : 0,
            "byteLength" : 552,
            "byteOffset" : 2472
        },
        {
            "buffer" : 0,
            "byteLength" : 552,
            "byteOffset" : 3024
        },
        {
            "buffer" : 0,
            "byteLength" : 368,
            "byteOffset" : 3576
        },
        {
            "buffer" : 0,
            "byteLength" : 368,
            "byteOffset" : 3944
        },
        {
            "buffer" : 0,
            "byteLength" : 168,
            "byteOffset" : 4312
        },
        {
            "buffer" : 0,
            "byteLength" : 876,
            "byteOffset" : 4480
        },
        {
            "buffer" : 0,
            "byteLength" : 876,
            "byteOffset" : 5356
        },
        {
            "buffer" : 0,
            "byteLength" : 584,
            "byteOffset" : 6232
        },
        {
            "buffer" : 0,
            "byteLength" : 584,
            "byteOffset" : 6816
        },
        {
            "buffer" : 0,
            "byteLength" : 228,
            "byteOffset" : 7400
        },
        {
            "buffer" : 0,
            "byteLength" : 96,
            "byteOffset" : 7628
        },
        {
            "buffer" : 0,
            "byteLength" : 96,
            "byteOffset" : 7724
        },
        {
            "buffer" : 0,
            "byteLength" : 64,
            "byteOffset" : 7820
        },
        {
            "buffer" : 0,
            "byteLength" : 64,
            "byteOffset" : 7884
        },
        {
            "buffer" : 0,
            "byteLength" : 36,
            "byteOffset" : 7948
        },
        {
            "buffer" : 0,
            "byteLength" : 216,
            "byteOffset" : 7984
        },
        {
            "buffer" : 0,
            "byteLength" : 216,
            "byteOffset" : 8200
        },
        {
            "buffer" : 0,
            "byteLength" : 144,
            "byteOffset" : 8416
        },
        {
            "buffer" : 0,
            "byteLength" : 144,
            "byteOffset" : 8560
        },
        {
            "buffer" : 0,
            "byteLength" : 36,
            "byteOffset" : 8704
        },
        {
            "buffer" : 0,
            "byteLength" : 588,
            "byteOffset" : 8740
        },
        {
            "buffer" : 0,
            "byteLength" : 588,
            "byteOffset" : 9328
        },
        {
            "buffer" : 0,
            "byteLength" : 392,
            "byteOffset" : 9916
        },
        {
            "buffer" : 0,
            "byteLength" : 392,
            "byteOffset" : 10308
        },
        {
            "buffer" : 0,
            "byteLength" : 222,
            "byteOffset" : 10700
        }
    ],
    "buffers" : [
        {
            "byteLength" : 10924,
            "uri" : "data:application/octet-stream;base64,"
        }
    ]
}
