{
    "asset" : {
        "generator" : "Khronos glTF Blender I/O v0.9.36",
        "version" : "2.0"
    },
    "scene" : 0,
    "scenes" : [
        {
            "name" : "Scene",
            "nodes" : [
                0,
                1,
                2,
                3,
                4,
                5,
                6,
                7,
                8,
                9,
                10,
                11,
                12,
                13,
                14
            ]
        }
    ],
    "nodes" : [
        {
            "name" : "Light",
            "rotation" : [
                0.16907575726509094,
                0.7558803558349609,
                -0.27217137813568115,
                0.570947527885437
            ],
            "translation" : [
                4.076245307922363,
                5.903861999511719,
                -1.0054539442062378
            ]
        },
        {
            "name" : "Camera",
            "rotation" : [
                0.483536034822464,
                0.33687159419059753,
                -0.20870360732078552,
                0.7804827094078064
            ],
            "translation" : [
                7.358891487121582,
                4.958309173583984,
                6.925790786743164
            ]
        },
        {
            "mesh" : 0,
            "name" : "Layer0_001.002",
            "rotation" : [
                0,
                -0.17780938744544983,
                0,
                0.9840649366378784
            ],
            "scale" : [
                0.02539999969303608,
                0.02539999969303608,
                0.02539999969303608
            ],
            "translation" : [
                0.13023892045021057,
                1.39885675907135,
                0.04080453887581825
            ]
        },
        {
            "name" : "Light.001",
            "rotation" : [
                0.5232754945755005,
                0.34203392267227173,
                -0.7269423604011536,
                0.284166157245636
            ],
            "translation" : [
                4.076245307922363,
                5.903862476348877,
                -1.0054532289505005
            ]
        },
        {
            "name" : "Camera.001",
            "rotation" : [
                0.8937963247299194,
                0.09062855690717697,
                -0.3857799172401428,
                0.20997287333011627
            ],
            "translation" : [
                7.358891487121582,
                4.958308696746826,
                6.925792217254639
            ]
        },
        {
            "name" : "Light.002",
            "rotation" : [
                -0.5709477066993713,
                0.2721712291240692,
                0.7558802962303162,
                0.16907566785812378
            ],
            "translation" : [
                4.076245307922363,
                5.903862953186035,
                -1.0054525136947632
            ]
        },
        {
            "name" : "Camera.002",
            "rotation" : [
                -0.7804825901985168,
                0.20870345830917358,
                0.33687177300453186,
                0.4835361838340759
            ],
            "translation" : [
                7.358891487121582,
                4.958308219909668,
                6.925793647766113
            ]
        },
        {
            "name" : "Light.003",
            "rotation" : [
                -0.2841666042804718,
                0.7269421815872192,
                0.3420339822769165,
                0.5232755541801453
            ],
            "translation" : [
                4.076245307922363,
                5.903863430023193,
                -1.0054517984390259
            ]
        },
        {
            "name" : "Camera.003",
            "rotation" : [
                -0.20997296273708344,
                0.3857799470424652,
                0.09062869846820831,
                0.8937962055206299
            ],
            "translation" : [
                7.358891487121582,
                4.95830774307251,
                6.925795078277588
            ]
        },
        {
            "name" : "Light.004",
            "rotation" : [
                -0.2841666042804718,
                0.7269421815872192,
                0.3420339822769165,
                0.5232755541801453
            ],
            "translation" : [
                4.076245307922363,
                5.903863430023193,
                -1.0054517984390259
            ]
        },
        {
            "name" : "Camera.004",
            "rotation" : [
                -0.20997296273708344,
                0.3857799470424652,
                0.09062869846820831,
                0.8937962055206299
            ],
            "translation" : [
                7.358891487121582,
                4.95830774307251,
                6.925795078277588
            ]
        },
        {
            "name" : "Light.005",
            "rotation" : [
                -0.2841666042804718,
                0.7269421815872192,
                0.3420339822769165,
                0.5232755541801453
            ],
            "translation" : [
                4.076245307922363,
                5.903863430023193,
                -1.0054517984390259
            ]
        },
        {
            "name" : "Camera.005",
            "rotation" : [
                -0.20997296273708344,
                0.3857799470424652,
                0.09062869846820831,
                0.8937962055206299
            ],
            "translation" : [
                7.358891487121582,
                4.95830774307251,
                6.925795078277588
            ]
        },
        {
            "name" : "Light.006",
            "rotation" : [
                -0.2841666042804718,
                0.7269421815872192,
                0.3420339822769165,
                0.5232755541801453
            ],
            "translation" : [
                4.076245307922363,
                5.903863430023193,
                -1.0054517984390259
            ]
        },
        {
            "name" : "Camera.006",
            "rotation" : [
                -0.20997296273708344,
                0.3857799470424652,
                0.09062869846820831,
                0.8937962055206299
            ],
            "translation" : [
                7.358891487121582,
                4.95830774307251,
                6.925795078277588
            ]
        }
    ],
    "materials" : [
        {
            "doubleSided" : true,
            "name" : "dbl_Layer0_002.002",
            "pbrMetallicRoughness" : {
                "metallicFactor" : 0,
                "roughnessFactor" : 0.5
            }
        },
        {
            "doubleSided" : true,
            "name" : "dbl_Layer0_010.002",
            "pbrMetallicRoughness" : {
                "baseColorFactor" : [
                    1,
                    1,
                    1,
                    1
                ],
                "metallicFactor" : 0,
                "roughnessFactor" : 0.5
            }
        },
        {
            "doubleSided" : true,
            "name" : "dbl_Layer0_011.002",
            "pbrMetallicRoughness" : {
                "baseColorFactor" : [
                    1,
                    1,
                    1,
                    1
                ],
                "metallicFactor" : 0,
                "roughnessFactor" : 0.5
            }
        },
        {
            "doubleSided" : true,
            "name" : "dbl_Layer0_012.002",
            "pbrMetallicRoughness" : {
                "baseColorFactor" : [
                    1,
                    1,
                    1,
                    1
                ],
                "metallicFactor" : 0,
                "roughnessFactor" : 0.5
            }
        },
        {
            "doubleSided" : true,
            "name" : "dbl_Layer0_014.002",
            "pbrMetallicRoughness" : {
                "baseColorFactor" : [
                    1,
                    1,
                    1,
                    1
                ],
                "metallicFactor" : 0,
                "roughnessFactor" : 0.5
            }
        }
    ],
    "meshes" : [
        {
            "name" : "Layer0_001Mesh.002",
            "primitives" : [
                {
                    "attributes" : {
                        "POSITION" : 0,
                        "NORMAL" : 1,
                        "TEXCOORD_0" : 2,
                        "TEXCOORD_1" : 3
                    },
                    "indices" : 4,
                    "material" : 0
                },
                {
                    "attributes" : {
                        "POSITION" : 5,
                        "NORMAL" : 6,
                        "TEXCOORD_0" : 7,
                        "TEXCOORD_1" : 8
                    },
                    "indices" : 9,
                    "material" : 1
                },
                {
                    "attributes" : {
                        "POSITION" : 10,
                        "NORMAL" : 11,
                        "TEXCOORD_0" : 12,
                        "TEXCOORD_1" : 13
                    },
                    "indices" : 14,
                    "material" : 2
                },
                {
                    "attributes" : {
                        "POSITION" : 15,
                        "NORMAL" : 16,
                        "TEXCOORD_0" : 17,
                        "TEXCOORD_1" : 18
                    },
                    "indices" : 19,
                    "material" : 3
                },
                {
                    "attributes" : {
                        "POSITION" : 20,
                        "NORMAL" : 21,
                        "TEXCOORD_0" : 22,
                        "TEXCOORD_1" : 23
                    },
                    "indices" : 24,
                    "material" : 4
                }
            ]
        }
    ],
    "accessors" : [
        {
            "bufferView" : 0,
            "componentType" : 5126,
            "count" : 12,
            "max" : [
                1.6916530132293701,
                14.52200698852539,
                21.884103775024414
            ],
            "min" : [
                -1.4446619749069214,
                3.4422149658203125,
                -0.6783980131149292
            ],
            "type" : "VEC3"
        },
        {
            "bufferView" : 1,
            "componentType" : 5126,
            "count" : 12,
            "type" : "VEC3"
        },
        {
            "bufferView" : 2,
            "componentType" : 5126,
            "count" : 12,
            "type" : "VEC2"
        },
        {
            "bufferView" : 3,
            "componentType" : 5126,
            "count" : 12,
            "type" : "VEC2"
        },
        {
            "bufferView" : 4,
            "componentType" : 5123,
            "count" : 18,
            "type" : "SCALAR"
        },
        {
            "bufferView" : 5,
            "componentType" : 5126,
            "count" : 98,
            "max" : [
                1.6484719514846802,
                14.071949005126953,
                18.18244171142578
            ],
            "min" : [
                1.0069750547409058,
                10.52896499633789,
                3.5520710945129395
            ],
            "type" : "VEC3"
        },
        {
            "bufferView" : 6,
            "componentType" : 5126,
            "count" : 98,
            "type" : "VEC3"
        },
        {
            "bufferView" : 7,
            "componentType" : 5126,
            "count" : 98,
            "type" : "VEC2"
        },
        {
            "bufferView" : 8,
            "componentType" : 5126,
            "count" : 98,
            "type" : "VEC2"
        },
        {
            "bufferView" : 9,
            "componentType" : 5123,
            "count" : 99,
            "type" : "SCALAR"
        },
        {
            "bufferView" : 10,
            "componentType" : 5126,
            "count" : 8,
            "max" : [
                -0.27616098523139954,
                3.6537859439849854,
                21.884103775024414
            ],
            "min" : [
                -1.4446619749069214,
                3.4422149658203125,
                -0.6783980131149292
            ],
            "type" : "VEC3"
        },
        {
            "bufferView" : 11,
            "componentType" : 5126,
            "count" : 8,
            "type" : "VEC3"
        },
        {
            "bufferView" : 12,
            "componentType" : 5126,
            "count" : 8,
            "type" : "VEC2"
        },
        {
            "bufferView" : 13,
            "componentType" : 5126,
            "count" : 8,
            "type" : "VEC2"
        },
        {
            "bufferView" : 14,
            "componentType" : 5123,
            "count" : 12,
            "type" : "SCALAR"
        },
        {
            "bufferView" : 15,
            "componentType" : 5126,
            "count" : 16,
            "max" : [
                1.6916530132293701,
                14.52200698852539,
                21.884103775024414
            ],
            "min" : [
                -1.4446619749069214,
                3.4422149658203125,
                -0.6783980131149292
            ],
            "type" : "VEC3"
        },
        {
            "bufferView" : 16,
            "componentType" : 5126,
            "count" : 16,
            "type" : "VEC3"
        },
        {
            "bufferView" : 17,
            "componentType" : 5126,
            "count" : 16,
            "type" : "VEC2"
        },
        {
            "bufferView" : 18,
            "componentType" : 5126,
            "count" : 16,
            "type" : "VEC2"
        },
        {
            "bufferView" : 19,
            "componentType" : 5123,
            "count" : 24,
            "type" : "SCALAR"
        },
        {
            "bufferView" : 20,
            "componentType" : 5126,
            "count" : 190,
            "max" : [
                1.6916530132293701,
                14.310436248779297,
                21.884103775024414
            ],
            "min" : [
                -0.27616098523139954,
                3.4422149658203125,
                -0.6783980131149292
            ],
            "type" : "VEC3"
        },
        {
            "bufferView" : 21,
            "componentType" : 5126,
            "count" : 190,
            "type" : "VEC3"
        },
        {
            "bufferView" : 22,
            "componentType" : 5126,
            "count" : 190,
            "type" : "VEC2"
        },
        {
            "bufferView" : 23,
            "componentType" : 5126,
            "count" : 190,
            "type" : "VEC2"
        },
        {
            "bufferView" : 24,
            "componentType" : 5123,
            "count" : 192,
            "type" : "SCALAR"
        }
    ],
    "bufferViews" : [
        {
            "buffer" : 0,
            "byteLength" : 144,
            "byteOffset" : 0
        },
        {
            "buffer" : 0,
            "byteLength" : 144,
            "byteOffset" : 144
        },
        {
            "buffer" : 0,
            "byteLength" : 96,
            "byteOffset" : 288
        },
        {
            "buffer" : 0,
            "byteLength" : 96,
            "byteOffset" : 384
        },
        {
            "buffer" : 0,
            "byteLength" : 36,
            "byteOffset" : 480
        },
        {
            "buffer" : 0,
            "byteLength" : 1176,
            "byteOffset" : 516
        },
        {
            "buffer" : 0,
            "byteLength" : 1176,
            "byteOffset" : 1692
        },
        {
            "buffer" : 0,
            "byteLength" : 784,
            "byteOffset" : 2868
        },
        {
            "buffer" : 0,
            "byteLength" : 784,
            "byteOffset" : 3652
        },
        {
            "buffer" : 0,
            "byteLength" : 198,
            "byteOffset" : 4436
        },
        {
            "buffer" : 0,
            "byteLength" : 96,
            "byteOffset" : 4636
        },
        {
            "buffer" : 0,
            "byteLength" : 96,
            "byteOffset" : 4732
        },
        {
            "buffer" : 0,
            "byteLength" : 64,
            "byteOffset" : 4828
        },
        {
            "buffer" : 0,
            "byteLength" : 64,
            "byteOffset" : 4892
        },
        {
            "buffer" : 0,
            "byteLength" : 24,
            "byteOffset" : 4956
        },
        {
            "buffer" : 0,
            "byteLength" : 192,
            "byteOffset" : 4980
        },
        {
            "buffer" : 0,
            "byteLength" : 192,
            "byteOffset" : 5172
        },
        {
            "buffer" : 0,
            "byteLength" : 128,
            "byteOffset" : 5364
        },
        {
            "buffer" : 0,
            "byteLength" : 128,
            "byteOffset" : 5492
        },
        {
            "buffer" : 0,
            "byteLength" : 48,
            "byteOffset" : 5620
        },
        {
            "buffer" : 0,
            "byteLength" : 2280,
            "byteOffset" : 5668
        },
        {
            "buffer" : 0,
            "byteLength" : 2280,
            "byteOffset" : 7948
        },
        {
            "buffer" : 0,
            "byteLength" : 1520,
            "byteOffset" : 10228
        },
        {
            "buffer" : 0,
            "byteLength" : 1520,
            "byteOffset" : 11748
        },
        {
            "buffer" : 0,
            "byteLength" : 384,
            "byteOffset" : 13268
        }
    ],
    "buffers" : [
        {
            "byteLength" : 13652,
            "uri" : "data:application/octet-stream;base64,"
        }
    ]
}
