{
    "asset" : {
        "generator" : "Khronos glTF Blender I/O v0.9.36",
        "version" : "2.0"
    },
    "scene" : 0,
    "scenes" : [
        {
            "name" : "Scene",
            "nodes" : [
                0,
                1,
                2,
                3,
                4,
                5,
                6,
                7,
                8,
                9,
                10,
                11,
                12,
                13,
                14
            ]
        }
    ],
    "nodes" : [
        {
            "name" : "Light",
            "rotation" : [
                0.16907575726509094,
                0.7558803558349609,
                -0.27217137813568115,
                0.570947527885437
            ],
            "translation" : [
                4.076245307922363,
                5.903861999511719,
                -1.0054539442062378
            ]
        },
        {
            "name" : "Camera",
            "rotation" : [
                0.483536034822464,
                0.33687159419059753,
                -0.20870360732078552,
                0.7804827094078064
            ],
            "translation" : [
                7.358891487121582,
                4.958309173583984,
                6.925790786743164
            ]
        },
        {
            "mesh" : 0,
            "name" : "Layer0_001.003",
            "rotation" : [
                0.010387848131358624,
                -0.19322706758975983,
                -0.011856557801365852,
                0.9810274243354797
            ],
            "scale" : [
                0.02539999969303608,
                0.02539999969303608,
                0.02539999969303608
            ],
            "translation" : [
                0.12555734813213348,
                1.3933112621307373,
                0.03830164670944214
            ]
        },
        {
            "name" : "Light.001",
            "rotation" : [
                0.5232754945755005,
                0.34203392267227173,
                -0.7269423604011536,
                0.284166157245636
            ],
            "translation" : [
                4.076245307922363,
                5.903862476348877,
                -1.0054532289505005
            ]
        },
        {
            "name" : "Camera.001",
            "rotation" : [
                0.8937963247299194,
                0.09062855690717697,
                -0.3857799172401428,
                0.20997287333011627
            ],
            "translation" : [
                7.358891487121582,
                4.958308696746826,
                6.925792217254639
            ]
        },
        {
            "name" : "Light.002",
            "rotation" : [
                -0.5709477066993713,
                0.2721712291240692,
                0.7558802962303162,
                0.16907566785812378
            ],
            "translation" : [
                4.076245307922363,
                5.903862953186035,
                -1.0054525136947632
            ]
        },
        {
            "name" : "Camera.002",
            "rotation" : [
                -0.7804825901985168,
                0.20870345830917358,
                0.33687177300453186,
                0.4835361838340759
            ],
            "translation" : [
                7.358891487121582,
                4.958308219909668,
                6.925793647766113
            ]
        },
        {
            "name" : "Light.003",
            "rotation" : [
                -0.2841666042804718,
                0.7269421815872192,
                0.3420339822769165,
                0.5232755541801453
            ],
            "translation" : [
                4.076245307922363,
                5.903863430023193,
                -1.0054517984390259
            ]
        },
        {
            "name" : "Camera.003",
            "rotation" : [
                -0.20997296273708344,
                0.3857799470424652,
                0.09062869846820831,
                0.8937962055206299
            ],
            "translation" : [
                7.358891487121582,
                4.95830774307251,
                6.925795078277588
            ]
        },
        {
            "name" : "Light.004",
            "rotation" : [
                -0.2841666042804718,
                0.7269421815872192,
                0.3420339822769165,
                0.5232755541801453
            ],
            "translation" : [
                4.076245307922363,
                5.903863430023193,
                -1.0054517984390259
            ]
        },
        {
            "name" : "Camera.004",
            "rotation" : [
                -0.20997296273708344,
                0.3857799470424652,
                0.09062869846820831,
                0.8937962055206299
            ],
            "translation" : [
                7.358891487121582,
                4.95830774307251,
                6.925795078277588
            ]
        },
        {
            "name" : "Light.005",
            "rotation" : [
                -0.2841666042804718,
                0.7269421815872192,
                0.3420339822769165,
                0.5232755541801453
            ],
            "translation" : [
                4.076245307922363,
                5.903863430023193,
                -1.0054517984390259
            ]
        },
        {
            "name" : "Camera.005",
            "rotation" : [
                -0.20997296273708344,
                0.3857799470424652,
                0.09062869846820831,
                0.8937962055206299
            ],
            "translation" : [
                7.358891487121582,
                4.95830774307251,
                6.925795078277588
            ]
        },
        {
            "name" : "Light.006",
            "rotation" : [
                -0.2841666042804718,
                0.7269421815872192,
                0.3420339822769165,
                0.5232755541801453
            ],
            "translation" : [
                4.076245307922363,
                5.903863430023193,
                -1.0054517984390259
            ]
        },
        {
            "name" : "Camera.006",
            "rotation" : [
                -0.20997296273708344,
                0.3857799470424652,
                0.09062869846820831,
                0.8937962055206299
            ],
            "translation" : [
                7.358891487121582,
                4.95830774307251,
                6.925795078277588
            ]
        }
    ],
    "materials" : [
        {
            "doubleSided" : true,
            "name" : "dbl_Layer0_002.003",
            "pbrMetallicRoughness" : {
                "metallicFactor" : 0,
                "roughnessFactor" : 0.5
            }
        },
        {
            "doubleSided" : true,
            "name" : "dbl_Layer0_008.003",
            "pbrMetallicRoughness" : {
                "baseColorFactor" : [
                    1,
                    1,
                    1,
                    1
                ],
                "metallicFactor" : 0,
                "roughnessFactor" : 0.5
            }
        },
        {
            "doubleSided" : true,
            "name" : "dbl_Layer0_013.003",
            "pbrMetallicRoughness" : {
                "baseColorFactor" : [
                    0.6627449989318848,
                    0.6627449989318848,
                    0.6627449989318848,
                    1
                ],
                "metallicFactor" : 0,
                "roughnessFactor" : 0.5
            }
        },
        {
            "doubleSided" : true,
            "name" : "dbl_Layer0_015.003",
            "pbrMetallicRoughness" : {
                "baseColorFactor" : [
                    0.7529410123825073,
                    0.7529410123825073,
                    0.7529410123825073,
                    1
                ],
                "metallicFactor" : 0,
                "roughnessFactor" : 0.5
            }
        },
        {
            "doubleSided" : true,
            "name" : "dbl_Layer0_016.003",
            "pbrMetallicRoughness" : {
                "metallicFactor" : 0,
                "roughnessFactor" : 0.5
            }
        }
    ],
    "meshes" : [
        {
            "name" : "Layer0_001Mesh.003",
            "primitives" : [
                {
                    "attributes" : {
                        "POSITION" : 0,
                        "NORMAL" : 1,
                        "TEXCOORD_0" : 2,
                        "TEXCOORD_1" : 3
                    },
                    "indices" : 4,
                    "material" : 0
                },
                {
                    "attributes" : {
                        "POSITION" : 5,
                        "NORMAL" : 6,
                        "TEXCOORD_0" : 7,
                        "TEXCOORD_1" : 8
                    },
                    "indices" : 9,
                    "material" : 1
                },
                {
                    "attributes" : {
                        "POSITION" : 10,
                        "NORMAL" : 11,
                        "TEXCOORD_0" : 12,
                        "TEXCOORD_1" : 13
                    },
                    "indices" : 14,
                    "material" : 2
                },
                {
                    "attributes" : {
                        "POSITION" : 15,
                        "NORMAL" : 16,
                        "TEXCOORD_0" : 17,
                        "TEXCOORD_1" : 18
                    },
                    "indices" : 4,
                    "material" : 3
                },
                {
                    "attributes" : {
                        "POSITION" : 19,
                        "NORMAL" : 20,
                        "TEXCOORD_0" : 21,
                        "TEXCOORD_1" : 22
                    },
                    "indices" : 23,
                    "material" : 4
                }
            ]
        }
    ],
    "accessors" : [
        {
            "bufferView" : 0,
            "componentType" : 5126,
            "count" : 66,
            "max" : [
                1.4267539978027344,
                10.041007995605469,
                7.737389087677002
            ],
            "min" : [
                0.6832209825515747,
                5.934478759765625,
                1.4552539587020874
            ],
            "type" : "VEC3"
        },
        {
            "bufferView" : 1,
            "componentType" : 5126,
            "count" : 66,
            "type" : "VEC3"
        },
        {
            "bufferView" : 2,
            "componentType" : 5126,
            "count" : 66,
            "type" : "VEC2"
        },
        {
            "bufferView" : 3,
            "componentType" : 5126,
            "count" : 66,
            "type" : "VEC2"
        },
        {
            "bufferView" : 4,
            "componentType" : 5123,
            "count" : 66,
            "type" : "SCALAR"
        },
        {
            "bufferView" : 5,
            "componentType" : 5126,
            "count" : 75,
            "max" : [
                1.9701290130615234,
                10.235664367675781,
                11.227851867675781
            ],
            "min" : [
                1.1238479614257812,
                5.5616607666015625,
                6.477851867675781
            ],
            "type" : "VEC3"
        },
        {
            "bufferView" : 6,
            "componentType" : 5126,
            "count" : 75,
            "type" : "VEC3"
        },
        {
            "bufferView" : 7,
            "componentType" : 5126,
            "count" : 75,
            "type" : "VEC2"
        },
        {
            "bufferView" : 8,
            "componentType" : 5126,
            "count" : 75,
            "type" : "VEC2"
        },
        {
            "bufferView" : 9,
            "componentType" : 5123,
            "count" : 75,
            "type" : "SCALAR"
        },
        {
            "bufferView" : 10,
            "componentType" : 5126,
            "count" : 62,
            "max" : [
                1.9701290130615234,
                10.413829803466797,
                11.227851867675781
            ],
            "min" : [
                0.13984699547290802,
                5.5616607666015625,
                6.477851867675781
            ],
            "type" : "VEC3"
        },
        {
            "bufferView" : 11,
            "componentType" : 5126,
            "count" : 62,
            "type" : "VEC3"
        },
        {
            "bufferView" : 12,
            "componentType" : 5126,
            "count" : 62,
            "type" : "VEC2"
        },
        {
            "bufferView" : 13,
            "componentType" : 5126,
            "count" : 62,
            "type" : "VEC2"
        },
        {
            "bufferView" : 14,
            "componentType" : 5123,
            "count" : 219,
            "type" : "SCALAR"
        },
        {
            "bufferView" : 15,
            "componentType" : 5126,
            "count" : 66,
            "max" : [
                1.918755054473877,
                9.951927185058594,
                7.737389087677002
            ],
            "min" : [
                1.1752220392227173,
                5.84539794921875,
                1.4552539587020874
            ],
            "type" : "VEC3"
        },
        {
            "bufferView" : 16,
            "componentType" : 5126,
            "count" : 66,
            "type" : "VEC3"
        },
        {
            "bufferView" : 17,
            "componentType" : 5126,
            "count" : 66,
            "type" : "VEC2"
        },
        {
            "bufferView" : 18,
            "componentType" : 5126,
            "count" : 66,
            "type" : "VEC2"
        },
        {
            "bufferView" : 19,
            "componentType" : 5126,
            "count" : 30,
            "max" : [
                1.918755054473877,
                10.041007995605469,
                7.737389087677002
            ],
            "min" : [
                0.6832209825515747,
                5.84539794921875,
                1.4552539587020874
            ],
            "type" : "VEC3"
        },
        {
            "bufferView" : 20,
            "componentType" : 5126,
            "count" : 30,
            "type" : "VEC3"
        },
        {
            "bufferView" : 21,
            "componentType" : 5126,
            "count" : 30,
            "type" : "VEC2"
        },
        {
            "bufferView" : 22,
            "componentType" : 5126,
            "count" : 30,
            "type" : "VEC2"
        },
        {
            "bufferView" : 23,
            "componentType" : 5123,
            "count" : 84,
            "type" : "SCALAR"
        }
    ],
    "bufferViews" : [
        {
            "buffer" : 0,
            "byteLength" : 792,
            "byteOffset" : 0
        },
        {
            "buffer" : 0,
            "byteLength" : 792,
            "byteOffset" : 792
        },
        {
            "buffer" : 0,
            "byteLength" : 528,
            "byteOffset" : 1584
        },
        {
            "buffer" : 0,
            "byteLength" : 528,
            "byteOffset" : 2112
        },
        {
            "buffer" : 0,
            "byteLength" : 132,
            "byteOffset" : 2640
        },
        {
            "buffer" : 0,
            "byteLength" : 900,
            "byteOffset" : 2772
        },
        {
            "buffer" : 0,
            "byteLength" : 900,
            "byteOffset" : 3672
        },
        {
            "buffer" : 0,
            "byteLength" : 600,
            "byteOffset" : 4572
        },
        {
            "buffer" : 0,
            "byteLength" : 600,
            "byteOffset" : 5172
        },
        {
            "buffer" : 0,
            "byteLength" : 150,
            "byteOffset" : 5772
        },
        {
            "buffer" : 0,
            "byteLength" : 744,
            "byteOffset" : 5924
        },
        {
            "buffer" : 0,
            "byteLength" : 744,
            "byteOffset" : 6668
        },
        {
            "buffer" : 0,
            "byteLength" : 496,
            "byteOffset" : 7412
        },
        {
            "buffer" : 0,
            "byteLength" : 496,
            "byteOffset" : 7908
        },
        {
            "buffer" : 0,
            "byteLength" : 438,
            "byteOffset" : 8404
        },
        {
            "buffer" : 0,
            "byteLength" : 792,
            "byteOffset" : 8844
        },
        {
            "buffer" : 0,
            "byteLength" : 792,
            "byteOffset" : 9636
        },
        {
            "buffer" : 0,
            "byteLength" : 528,
            "byteOffset" : 10428
        },
        {
            "buffer" : 0,
            "byteLength" : 528,
            "byteOffset" : 10956
        },
        {
            "buffer" : 0,
            "byteLength" : 360,
            "byteOffset" : 11484
        },
        {
            "buffer" : 0,
            "byteLength" : 360,
            "byteOffset" : 11844
        },
        {
            "buffer" : 0,
            "byteLength" : 240,
            "byteOffset" : 12204
        },
        {
            "buffer" : 0,
            "byteLength" : 240,
            "byteOffset" : 12444
        },
        {
            "buffer" : 0,
            "byteLength" : 168,
            "byteOffset" : 12684
        }
    ],
    "buffers" : [
        {
            "byteLength" : 12852,
            "uri" : "data:application/octet-stream;base64,"
        }
    ]
}
