{
    "asset" : {
        "generator" : "Khronos glTF Blender I/O v0.9.36",
        "version" : "2.0"
    },
    "scene" : 0,
    "scenes" : [
        {
            "name" : "Scene",
            "nodes" : [
                0,
                1,
                3,
                5,
                6,
                8,
                10,
                11,
                12,
                13,
                15,
                17,
                18,
                20,
                23,
                24
            ]
        }
    ],
    "nodes" : [
        {
            "name" : "Light",
            "rotation" : [
                0.16907575726509094,
                0.7558803558349609,
                -0.27217137813568115,
                0.570947527885437
            ],
            "translation" : [
                4.076245307922363,
                5.903861999511719,
                -1.0054539442062378
            ]
        },
        {
            "name" : "Camera",
            "rotation" : [
                0.483536034822464,
                0.33687159419059753,
                -0.20870360732078552,
                0.7804827094078064
            ],
            "translation" : [
                7.358891487121582,
                4.958309173583984,
                6.925790786743164
            ]
        },
        {
            "name" : "instance_1.001",
            "scale" : [
                92,
                92,
                92
            ],
            "translation" : [
                7190.0234375,
                -11131.740234375,
                0
            ]
        },
        {
            "children" : [
                2
            ],
            "name" : "SketchUp",
            "rotation" : [
                0.7071068286895752,
                0,
                0,
                0.7071067094802856
            ],
            "scale" : [
                0.02539999969303608,
                0.025400003418326378,
                0.025400003418326378
            ]
        },
        {
            "name" : "skp_camera_Last_Saved_SketchUp_View.001",
            "rotation" : [
                0.33758193254470825,
                -0.020073868334293365,
                0.007201043423265219,
                0.9410545229911804
            ],
            "translation" : [
                1960.798095703125,
                -21128.5703125,
                -12547.6396484375
            ]
        },
        {
            "children" : [
                4
            ],
            "name" : "SketchUp.001",
            "rotation" : [
                1,
                0,
                0,
                -1.3435885648505064e-07
            ],
            "scale" : [
                0.02539999969303608,
                0.025400005280971527,
                0.025400005280971527
            ]
        },
        {
            "name" : "skp_camera_Last_Saved_SketchUp_View.002",
            "rotation" : [
                0.9041325449943542,
                -0.019286271184682846,
                -0.009102465584874153,
                0.4267195463180542
            ],
            "translation" : [
                1960.798095703125,
                12547.64453125,
                -21128.5703125
            ]
        },
        {
            "name" : "instance_1.002",
            "scale" : [
                92,
                92,
                92
            ],
            "translation" : [
                7190.0234375,
                0,
                11131.740234375
            ]
        },
        {
            "children" : [
                7
            ],
            "name" : "SketchUp.003",
            "rotation" : [
                1,
                0,
                0,
                -1.3435885648505064e-07
            ],
            "scale" : [
                0.02539999969303608,
                0.025400005280971527,
                0.025400005280971527
            ]
        },
        {
            "name" : "skp_camera_Last_Saved_SketchUp_View.000",
            "rotation" : [
                0.33758193254470825,
                0.007201043423265219,
                0.020073868334293365,
                0.9410545229911804
            ],
            "translation" : [
                1960.798095703125,
                -12547.6396484375,
                21128.5703125
            ]
        },
        {
            "children" : [
                9
            ],
            "name" : "SketchUp.004",
            "rotation" : [
                -0.7071065902709961,
                0,
                0,
                0.7071069478988647
            ],
            "scale" : [
                0.02539999969303608,
                0.025400009006261826,
                0.025400009006261826
            ]
        },
        {
            "name" : "skp_camera_Last_Saved_SketchUp_View.003",
            "rotation" : [
                0.904132604598999,
                -0.009102466516196728,
                0.019286271184682846,
                0.4267195165157318
            ],
            "translation" : [
                1960.798095703125,
                -21128.5703125,
                -12547.64453125
            ]
        },
        {
            "name" : "Light.001",
            "rotation" : [
                0.5232754945755005,
                0.34203392267227173,
                -0.7269423604011536,
                0.284166157245636
            ],
            "translation" : [
                4.076245307922363,
                5.903862476348877,
                -1.0054532289505005
            ]
        },
        {
            "name" : "Camera.001",
            "rotation" : [
                0.8937963247299194,
                0.09062855690717697,
                -0.3857799172401428,
                0.20997287333011627
            ],
            "translation" : [
                7.358891487121582,
                4.958308696746826,
                6.925792217254639
            ]
        },
        {
            "name" : "instance_1.000",
            "scale" : [
                92,
                92,
                92
            ],
            "translation" : [
                7190.0234375,
                0,
                11131.740234375
            ]
        },
        {
            "children" : [
                14
            ],
            "name" : "SketchUp.002",
            "rotation" : [
                1,
                0,
                0,
                -1.3435885648505064e-07
            ],
            "scale" : [
                0.02539999969303608,
                0.025400005280971527,
                0.025400005280971527
            ]
        },
        {
            "name" : "skp_camera_Last_Saved_SketchUp_View.004",
            "rotation" : [
                0.33758193254470825,
                0.007201043423265219,
                0.020073868334293365,
                0.9410545229911804
            ],
            "translation" : [
                1960.798095703125,
                -12547.6396484375,
                21128.5703125
            ]
        },
        {
            "children" : [
                16
            ],
            "name" : "SketchUp.005",
            "rotation" : [
                -0.7071065902709961,
                0,
                0,
                0.7071069478988647
            ],
            "scale" : [
                0.02539999969303608,
                0.025400009006261826,
                0.025400009006261826
            ]
        },
        {
            "name" : "skp_camera_Last_Saved_SketchUp_View.005",
            "rotation" : [
                -0.9410544633865356,
                0.020073862746357918,
                -0.007201047148555517,
                0.33758217096328735
            ],
            "translation" : [
                1960.798095703125,
                12547.6494140625,
                -21128.5703125
            ]
        },
        {
            "name" : "instance_1.004",
            "scale" : [
                92,
                92,
                92
            ],
            "translation" : [
                7190.0234375,
                11131.740234375,
                0
            ]
        },
        {
            "children" : [
                19
            ],
            "name" : "SketchUp.006",
            "rotation" : [
                -0.7071065902709961,
                0,
                0,
                0.7071069478988647
            ],
            "scale" : [
                0.02539999969303608,
                0.025400009006261826,
                0.025400009006261826
            ]
        },
        {
            "mesh" : 0,
            "name" : "instance_1.005",
            "rotation" : [
                0.21058522164821625,
                -0.6893446445465088,
                -0.2597728371620178,
                0.6426320672035217
            ],
            "scale" : [
                0.17184197902679443,
                0.503259003162384,
                0.16738668084144592
            ],
            "translation" : [
                -4.7566657066345215,
                -1.1537439823150635,
                65.1178207397461
            ]
        },
        {
            "name" : "skp_camera_Last_Saved_SketchUp_View.006",
            "rotation" : [
                0.33758193254470825,
                0.020073868334293365,
                -0.007201043423265219,
                0.9410545229911804
            ],
            "translation" : [
                1960.798095703125,
                21128.5703125,
                12547.6396484375
            ]
        },
        {
            "children" : [
                21,
                22
            ],
            "name" : "SketchUp.007",
            "scale" : [
                0.02539999969303608,
                0.025400010868906975,
                0.025400010868906975
            ]
        },
        {
            "name" : "skp_camera_Last_Saved_SketchUp_View.007",
            "rotation" : [
                -0.9410544633865356,
                -0.007201042957603931,
                -0.020073862746357918,
                0.3375822603702545
            ],
            "translation" : [
                2669.3203125,
                -21254.478515625,
                -12388.833984375
            ]
        }
    ],
    "materials" : [
        {
            "doubleSided" : true,
            "name" : "material.000",
            "pbrMetallicRoughness" : {
                "baseColorFactor" : [
                    0.3762621283531189,
                    0.23074008524417877,
                    0.2788942754268646,
                    1
                ],
                "metallicFactor" : 0.9772727489471436,
                "roughnessFactor" : 0.7590909004211426
            }
        },
        {
            "doubleSided" : true,
            "name" : "material_0.000",
            "pbrMetallicRoughness" : {
                "baseColorFactor" : [
                    0.5209956765174866,
                    0.2701004445552826,
                    0.32640156149864197,
                    1
                ],
                "metallicFactor" : 0,
                "roughnessFactor" : 0.5
            }
        }
    ],
    "meshes" : [
        {
            "name" : "ID219.000",
            "primitives" : [
                {
                    "attributes" : {
                        "POSITION" : 0,
                        "NORMAL" : 1
                    },
                    "indices" : 2,
                    "material" : 0
                },
                {
                    "attributes" : {
                        "POSITION" : 3,
                        "NORMAL" : 4
                    },
                    "indices" : 5,
                    "material" : 1
                }
            ]
        }
    ],
    "accessors" : [
        {
            "bufferView" : 0,
            "componentType" : 5126,
            "count" : 145,
            "max" : [
                6.012874126434326,
                10.25,
                138.19749450683594
            ],
            "min" : [
                -115.40239715576172,
                -0.7320540547370911,
                12.792505264282227
            ],
            "type" : "VEC3"
        },
        {
            "bufferView" : 1,
            "componentType" : 5126,
            "count" : 145,
            "type" : "VEC3"
        },
        {
            "bufferView" : 2,
            "componentType" : 5123,
            "count" : 306,
            "type" : "SCALAR"
        },
        {
            "bufferView" : 3,
            "componentType" : 5126,
            "count" : 144,
            "max" : [
                6.012874126434326,
                10.25,
                138.19749450683594
            ],
            "min" : [
                -115.40239715576172,
                -0.7320540547370911,
                12.792505264282227
            ],
            "type" : "VEC3"
        },
        {
            "bufferView" : 4,
            "componentType" : 5126,
            "count" : 144,
            "type" : "VEC3"
        },
        {
            "bufferView" : 5,
            "componentType" : 5123,
            "count" : 297,
            "type" : "SCALAR"
        }
    ],
    "bufferViews" : [
        {
            "buffer" : 0,
            "byteLength" : 1740,
            "byteOffset" : 0
        },
        {
            "buffer" : 0,
            "byteLength" : 1740,
            "byteOffset" : 1740
        },
        {
            "buffer" : 0,
            "byteLength" : 612,
            "byteOffset" : 3480
        },
        {
            "buffer" : 0,
            "byteLength" : 1728,
            "byteOffset" : 4092
        },
        {
            "buffer" : 0,
            "byteLength" : 1728,
            "byteOffset" : 5820
        },
        {
            "buffer" : 0,
            "byteLength" : 594,
            "byteOffset" : 7548
        }
    ],
    "buffers" : [
        {
            "byteLength" : 8144,
            "uri" : "data:application/octet-stream;base64,"
        }
    ]
}
