{
    "asset" : {
        "generator" : "Khronos glTF Blender I/O v0.9.36",
        "version" : "2.0"
    },
    "scene" : 0,
    "scenes" : [
        {
            "name" : "Scene",
            "nodes" : [
                3,
                4
            ]
        }
    ],
    "nodes" : [
        {
            "mesh" : 0,
            "name" : "instance_1",
            "rotation" : [
                -0.8902361989021301,
                0,
                0,
                0.45549941062927246
            ],
            "scale" : [
                -0.074612557888031,
                -0.06809604167938232,
                -0.1878349334001541
            ],
            "translation" : [
                -21.860015869140625,
                -48.161529541015625,
                16.472917556762695
            ]
        },
        {
            "name" : "instance_1.136",
            "scale" : [
                92,
                92,
                92
            ],
            "translation" : [
                7190.0234375,
                11131.740234375,
                0
            ]
        },
        {
            "name" : "skp_camera_Last_Saved_SketchUp_View.678",
            "rotation" : [
                0.33758193254470825,
                0.007201043423265219,
                0.020073868334293365,
                0.9410545229911804
            ],
            "translation" : [
                1960.798095703125,
                -12547.6396484375,
                21128.5703125
            ]
        },
        {
            "children" : [
                0,
                1,
                2
            ],
            "name" : "SketchUp.022",
            "rotation" : [
                -0.7071065902709961,
                0,
                0,
                0.7071069478988647
            ],
            "scale" : [
                0.02539999969303608,
                0.025400009006261826,
                0.025400009006261826
            ]
        },
        {
            "mesh" : 1,
            "name" : "Circle",
            "rotation" : [
                0.4369744062423706,
                -0.0026728541124612093,
                -0.005821825470775366,
                0.8994511365890503
            ],
            "scale" : [
                0.17174197733402252,
                -0.2844145894050598,
                0.16871416568756104
            ],
            "translation" : [
                -0.47739067673683167,
                0.2935909330844879,
                1.2654396295547485
            ]
        }
    ],
    "materials" : [
        {
            "doubleSided" : true,
            "name" : "material",
            "pbrMetallicRoughness" : {
                "baseColorFactor" : [
                    1,
                    1,
                    1,
                    1
                ],
                "metallicFactor" : 0,
                "roughnessFactor" : 0.5
            }
        },
        {
            "doubleSided" : true,
            "name" : "material_0",
            "pbrMetallicRoughness" : {
                "baseColorFactor" : [
                    0.06968966871500015,
                    0.07253909856081009,
                    0.08460899442434311,
                    1
                ],
                "metallicFactor" : 0,
                "roughnessFactor" : 0.5
            }
        },
        {
            "doubleSided" : true,
            "name" : "Material.003",
            "pbrMetallicRoughness" : {
                "baseColorTexture" : {
                    "index" : 0,
                    "texCoord" : 0
                },
                "metallicFactor" : 0,
                "roughnessFactor" : 0
            }
        }
    ],
    "meshes" : [
        {
            "name" : "ID219",
            "primitives" : [
                {
                    "attributes" : {
                        "POSITION" : 0,
                        "NORMAL" : 1
                    },
                    "indices" : 2,
                    "material" : 0
                },
                {
                    "attributes" : {
                        "POSITION" : 3,
                        "NORMAL" : 4
                    },
                    "indices" : 5,
                    "material" : 1
                }
            ]
        },
        {
            "name" : "Circle",
            "primitives" : [
                {
                    "attributes" : {
                        "POSITION" : 6,
                        "NORMAL" : 7,
                        "TEXCOORD_0" : 8
                    },
                    "indices" : 9,
                    "material" : 2
                }
            ]
        }
    ],
    "textures" : [
        {
            "source" : 0
        }
    ],
    "images" : [
        {
            "bufferView" : 10,
            "mimeType" : "image/jpeg",
            "name" : "Capturar"
        }
    ],
    "accessors" : [
        {
            "bufferView" : 0,
            "componentType" : 5126,
            "count" : 152,
            "max" : [
                23.1875,
                0,
                10.25
            ],
            "min" : [
                -115.40239715576172,
                -138.19749450683594,
                0
            ],
            "type" : "VEC3"
        },
        {
            "bufferView" : 1,
            "componentType" : 5126,
            "count" : 152,
            "type" : "VEC3"
        },
        {
            "bufferView" : 2,
            "componentType" : 5123,
            "count" : 321,
            "type" : "SCALAR"
        },
        {
            "bufferView" : 3,
            "componentType" : 5126,
            "count" : 156,
            "max" : [
                23.1875,
                0,
                10.25
            ],
            "min" : [
                -115.40239715576172,
                -138.19749450683594,
                0
            ],
            "type" : "VEC3"
        },
        {
            "bufferView" : 4,
            "componentType" : 5126,
            "count" : 156,
            "type" : "VEC3"
        },
        {
            "bufferView" : 5,
            "componentType" : 5123,
            "count" : 321,
            "type" : "SCALAR"
        },
        {
            "bufferView" : 6,
            "componentType" : 5126,
            "count" : 224,
            "max" : [
                1.0010608434677124,
                0,
                1.005793809890747
            ],
            "min" : [
                -1,
                -0.2760028839111328,
                -1
            ],
            "type" : "VEC3"
        },
        {
            "bufferView" : 7,
            "componentType" : 5126,
            "count" : 224,
            "type" : "VEC3"
        },
        {
            "bufferView" : 8,
            "componentType" : 5126,
            "count" : 224,
            "type" : "VEC2"
        },
        {
            "bufferView" : 9,
            "componentType" : 5123,
            "count" : 474,
            "type" : "SCALAR"
        }
    ],
    "bufferViews" : [
        {
            "buffer" : 0,
            "byteLength" : 1824,
            "byteOffset" : 0
        },
        {
            "buffer" : 0,
            "byteLength" : 1824,
            "byteOffset" : 1824
        },
        {
            "buffer" : 0,
            "byteLength" : 642,
            "byteOffset" : 3648
        },
        {
            "buffer" : 0,
            "byteLength" : 1872,
            "byteOffset" : 4292
        },
        {
            "buffer" : 0,
            "byteLength" : 1872,
            "byteOffset" : 6164
        },
        {
            "buffer" : 0,
            "byteLength" : 642,
            "byteOffset" : 8036
        },
        {
            "buffer" : 0,
            "byteLength" : 2688,
            "byteOffset" : 8680
        },
        {
            "buffer" : 0,
            "byteLength" : 2688,
            "byteOffset" : 11368
        },
        {
            "buffer" : 0,
            "byteLength" : 1792,
            "byteOffset" : 14056
        },
        {
            "buffer" : 0,
            "byteLength" : 948,
            "byteOffset" : 15848
        },
        {
            "buffer" : 0,
            "byteLength" : 29493,
            "byteOffset" : 16796
        }
    ],
    "buffers" : [
        {
            "byteLength" : 46292,
            "uri" : "data:application/octet-stream;base64,"
        }
    ]
}
