{
    "asset" : {
        "generator" : "Khronos glTF Blender I/O v0.9.36",
        "version" : "2.0"
    },
    "scene" : 0,
    "scenes" : [
        {
            "name" : "Scene",
            "nodes" : [
                2,
                3
            ]
        }
    ],
    "nodes" : [
        {
            "name" : "instance_1.136",
            "scale" : [
                92,
                92,
                92
            ],
            "translation" : [
                7190.0234375,
                11131.740234375,
                0
            ]
        },
        {
            "name" : "skp_camera_Last_Saved_SketchUp_View.678",
            "rotation" : [
                0.33758193254470825,
                0.007201043423265219,
                0.020073868334293365,
                0.9410545229911804
            ],
            "translation" : [
                1960.798095703125,
                -12547.6396484375,
                21128.5703125
            ]
        },
        {
            "children" : [
                0,
                1
            ],
            "name" : "SketchUp.022",
            "rotation" : [
                -0.7071065902709961,
                0,
                0,
                0.7071069478988647
            ],
            "scale" : [
                0.02539999969303608,
                0.025400009006261826,
                0.025400009006261826
            ]
        },
        {
            "mesh" : 0,
            "name" : "Circle.001",
            "rotation" : [
                0.4369744062423706,
                -0.0026728541124612093,
                -0.005821825470775366,
                0.8994511365890503
            ],
            "scale" : [
                0.1997239589691162,
                -0.3194214105606079,
                0.20383065938949585
            ],
            "translation" : [
                -0.4768918454647064,
                0.24887032806873322,
                1.2029322385787964
            ]
        }
    ],
    "materials" : [
        {
            "doubleSided" : true,
            "name" : "Material.010",
            "pbrMetallicRoughness" : {
                "baseColorTexture" : {
                    "index" : 0,
                    "texCoord" : 0
                },
                "metallicFactor" : 0,
                "roughnessFactor" : 0
            }
        }
    ],
    "meshes" : [
        {
            "name" : "Circle.003",
            "primitives" : [
                {
                    "attributes" : {
                        "POSITION" : 0,
                        "NORMAL" : 1,
                        "TEXCOORD_0" : 2
                    },
                    "indices" : 3,
                    "material" : 0
                }
            ]
        }
    ],
    "textures" : [
        {
            "source" : 0
        }
    ],
    "images" : [
        {
            "bufferView" : 4,
            "mimeType" : "image/jpeg",
            "name" : "Capturar"
        }
    ],
    "accessors" : [
        {
            "bufferView" : 0,
            "componentType" : 5126,
            "count" : 224,
            "max" : [
                1.0010608434677124,
                0,
                1.005793809890747
            ],
            "min" : [
                -1,
                -0.2760028839111328,
                -1
            ],
            "type" : "VEC3"
        },
        {
            "bufferView" : 1,
            "componentType" : 5126,
            "count" : 224,
            "type" : "VEC3"
        },
        {
            "bufferView" : 2,
            "componentType" : 5126,
            "count" : 224,
            "type" : "VEC2"
        },
        {
            "bufferView" : 3,
            "componentType" : 5123,
            "count" : 474,
            "type" : "SCALAR"
        }
    ],
    "bufferViews" : [
        {
            "buffer" : 0,
            "byteLength" : 2688,
            "byteOffset" : 0
        },
        {
            "buffer" : 0,
            "byteLength" : 2688,
            "byteOffset" : 2688
        },
        {
            "buffer" : 0,
            "byteLength" : 1792,
            "byteOffset" : 5376
        },
        {
            "buffer" : 0,
            "byteLength" : 948,
            "byteOffset" : 7168
        },
        {
            "buffer" : 0,
            "byteLength" : 29493,
            "byteOffset" : 8116
        }
    ],
    "buffers" : [
        {
            "byteLength" : 37612,
            "uri" : "data:application/octet-stream;base64,"
        }
    ]
}
