{
    "asset" : {
        "generator" : "Khronos glTF Blender I/O v0.9.36",
        "version" : "2.0"
    },
    "scene" : 0,
    "scenes" : [
        {
            "name" : "Scene",
            "nodes" : [
                0,
                3,
                4,
                7,
                8,
                10
            ]
        }
    ],
    "nodes" : [
        {
            "name" : "Camera",
            "rotation" : [
                0.483536034822464,
                0.33687159419059753,
                -0.20870360732078552,
                0.7804827094078064
            ],
            "translation" : [
                7.358891487121582,
                4.958309173583984,
                6.925790786743164
            ]
        },
        {
            "name" : "instance_0.022",
            "rotation" : [
                0,
                0.021326391026377678,
                0,
                0.9997725486755371
            ],
            "translation" : [
                14.737019538879395,
                0,
                -16.51963996887207
            ]
        },
        {
            "name" : "instance_1.001",
            "scale" : [
                92,
                92,
                92
            ],
            "translation" : [
                7190.0234375,
                0,
                -11131.740234375
            ]
        },
        {
            "children" : [
                1,
                2
            ],
            "name" : "SketchUp",
            "scale" : [
                0.02539999969303608,
                0.02539999969303608,
                0.02539999969303608
            ]
        },
        {
            "name" : "Camera.001",
            "rotation" : [
                0.8937963247299194,
                0.09062855690717697,
                -0.3857799172401428,
                0.20997287333011627
            ],
            "translation" : [
                7.358891487121582,
                4.958308696746826,
                6.925792217254639
            ]
        },
        {
            "mesh" : 0,
            "name" : "instance_1",
            "rotation" : [
                0,
                0,
                0.7453555464744568,
                0.6666671633720398
            ],
            "scale" : [
                0.2549200654029846,
                0.25133925676345825,
                0.43169623613357544
            ],
            "translation" : [
                -8.913656234741211,
                50.86655044555664,
                -13.182554244995117
            ]
        },
        {
            "name" : "skp_camera_Last_Saved_SketchUp_View.001",
            "rotation" : [
                0.33758193254470825,
                -0.007201043423265219,
                -0.020073868334293365,
                0.9410545229911804
            ],
            "translation" : [
                1960.798095703125,
                12547.6396484375,
                -21128.5703125
            ]
        },
        {
            "children" : [
                5,
                6
            ],
            "name" : "SketchUp.001",
            "rotation" : [
                0.7071068286895752,
                0,
                0,
                0.7071067094802856
            ],
            "scale" : [
                0.02539999969303608,
                0.025400003418326378,
                0.025400003418326378
            ]
        },
        {
            "name" : "Camera.002",
            "rotation" : [
                0.8937963247299194,
                0.09062855690717697,
                -0.3857799172401428,
                0.20997287333011627
            ],
            "translation" : [
                7.358891487121582,
                4.958308696746826,
                6.925792217254639
            ]
        },
        {
            "name" : "skp_camera_Last_Saved_SketchUp_View.002",
            "rotation" : [
                0.33758193254470825,
                -0.007201043423265219,
                -0.020073868334293365,
                0.9410545229911804
            ],
            "translation" : [
                1960.798095703125,
                12547.6396484375,
                -21128.5703125
            ]
        },
        {
            "children" : [
                9
            ],
            "name" : "SketchUp.002",
            "rotation" : [
                0.04646816849708557,
                0.7055782079696655,
                -0.7055783271789551,
                0.046468161046504974
            ],
            "scale" : [
                0.02539999969303608,
                -0.025400003418326378,
                0.025400003418326378
            ],
            "translation" : [
                0.5257415175437927,
                0,
                0
            ]
        }
    ],
    "materials" : [
        {
            "doubleSided" : true,
            "name" : "material.005",
            "pbrMetallicRoughness" : {
                "baseColorFactor" : [
                    1,
                    1,
                    1,
                    1
                ],
                "metallicFactor" : 0,
                "roughnessFactor" : 0.5
            }
        },
        {
            "doubleSided" : true,
            "name" : "material_0.005",
            "pbrMetallicRoughness" : {
                "baseColorFactor" : [
                    0.5209956765174866,
                    0.2701004445552826,
                    0.32640156149864197,
                    1
                ],
                "metallicFactor" : 0,
                "roughnessFactor" : 0.5
            }
        }
    ],
    "meshes" : [
        {
            "name" : "ID219.005",
            "primitives" : [
                {
                    "attributes" : {
                        "POSITION" : 0,
                        "NORMAL" : 1
                    },
                    "indices" : 2,
                    "material" : 0
                },
                {
                    "attributes" : {
                        "POSITION" : 3,
                        "NORMAL" : 4
                    },
                    "indices" : 5,
                    "material" : 1
                }
            ]
        }
    ],
    "accessors" : [
        {
            "bufferView" : 0,
            "componentType" : 5126,
            "count" : 137,
            "max" : [
                6.012874126434326,
                138.19749450683594,
                0
            ],
            "min" : [
                -115.40239715576172,
                37.25,
                -10.25
            ],
            "type" : "VEC3"
        },
        {
            "bufferView" : 1,
            "componentType" : 5126,
            "count" : 137,
            "type" : "VEC3"
        },
        {
            "bufferView" : 2,
            "componentType" : 5123,
            "count" : 300,
            "type" : "SCALAR"
        },
        {
            "bufferView" : 3,
            "componentType" : 5126,
            "count" : 127,
            "max" : [
                6.012874126434326,
                138.19749450683594,
                0
            ],
            "min" : [
                -115.40239715576172,
                37.25,
                -10.25
            ],
            "type" : "VEC3"
        },
        {
            "bufferView" : 4,
            "componentType" : 5126,
            "count" : 127,
            "type" : "VEC3"
        },
        {
            "bufferView" : 5,
            "componentType" : 5123,
            "count" : 288,
            "type" : "SCALAR"
        }
    ],
    "bufferViews" : [
        {
            "buffer" : 0,
            "byteLength" : 1644,
            "byteOffset" : 0
        },
        {
            "buffer" : 0,
            "byteLength" : 1644,
            "byteOffset" : 1644
        },
        {
            "buffer" : 0,
            "byteLength" : 600,
            "byteOffset" : 3288
        },
        {
            "buffer" : 0,
            "byteLength" : 1524,
            "byteOffset" : 3888
        },
        {
            "buffer" : 0,
            "byteLength" : 1524,
            "byteOffset" : 5412
        },
        {
            "buffer" : 0,
            "byteLength" : 576,
            "byteOffset" : 6936
        }
    ],
    "buffers" : [
        {
            "byteLength" : 7512,
            "uri" : "data:application/octet-stream;base64,"
        }
    ]
}
