{
    "asset" : {
        "generator" : "Khronos glTF Blender I/O v1.1.46",
        "version" : "2.0"
    },
    "scene" : 0,
    "scenes" : [
        {
            "name" : "Scene",
            "nodes" : [
                0,
                1,
                2,
                4
            ]
        }
    ],
    "nodes" : [
        {
            "name" : "Light",
            "rotation" : [
                0.16907575726509094,
                0.7558803558349609,
                -0.27217137813568115,
                0.570947527885437
            ],
            "translation" : [
                4.076245307922363,
                5.903861999511719,
                -1.0054539442062378
            ]
        },
        {
            "name" : "Camera",
            "rotation" : [
                0.483536034822464,
                0.33687159419059753,
                -0.20870360732078552,
                0.7804827094078064
            ],
            "translation" : [
                7.358891487121582,
                4.958309173583984,
                6.925790786743164
            ]
        },
        {
            "name" : "Camera.001",
            "rotation" : [
                0.8937963247299194,
                0.09062855690717697,
                -0.3857799172401428,
                0.20997287333011627
            ],
            "translation" : [
                7.358891487121582,
                4.958308696746826,
                6.925792217254639
            ]
        },
        {
            "mesh" : 0,
            "name" : "The_City:bldgs2",
            "rotation" : [
                0,
                -0.7085219025611877,
                0,
                0.7056887745857239
            ],
            "scale" : [
                10.779117584228516,
                10.779117584228516,
                10.417359352111816
            ],
            "translation" : [
                -3254.1005859375,
                401.8658447265625,
                5048.958984375
            ]
        },
        {
            "children" : [
                3
            ],
            "name" : "group1",
            "rotation" : [
                1,
                0,
                0,
                -1.3435885648505064e-07
            ],
            "scale" : [
                0.009999999776482582,
                0.009999999776482582,
                0.009999999776482582
            ]
        }
    ],
    "materials" : [
        {
            "doubleSided" : true,
            "emissiveFactor" : [
                0,
                0,
                0
            ],
            "name" : "lambert4",
            "pbrMetallicRoughness" : {
                "baseColorFactor" : [
                    0.3025708794593811,
                    0.3291977643966675,
                    0.33380258083343506,
                    1
                ],
                "metallicFactor" : 0.08636363595724106,
                "roughnessFactor" : 0.4436954855918884
            }
        }
    ],
    "meshes" : [
        {
            "name" : "Mesh.001",
            "primitives" : [
                {
                    "attributes" : {
                        "POSITION" : 0,
                        "NORMAL" : 1,
                        "TEXCOORD_0" : 2
                    },
                    "indices" : 3,
                    "material" : 0
                }
            ]
        }
    ],
    "accessors" : [
        {
            "bufferView" : 0,
            "componentType" : 5126,
            "count" : 15953,
            "max" : [
                563.947021484375,
                -27.952199935913086,
                1643.4300537109375
            ],
            "min" : [
                -1099.9300537109375,
                -870.89501953125,
                504.02099609375
            ],
            "type" : "VEC3"
        },
        {
            "bufferView" : 1,
            "componentType" : 5126,
            "count" : 15953,
            "type" : "VEC3"
        },
        {
            "bufferView" : 2,
            "componentType" : 5126,
            "count" : 15953,
            "type" : "VEC2"
        },
        {
            "bufferView" : 3,
            "componentType" : 5123,
            "count" : 30750,
            "type" : "SCALAR"
        }
    ],
    "bufferViews" : [
        {
            "buffer" : 0,
            "byteLength" : 191436,
            "byteOffset" : 0
        },
        {
            "buffer" : 0,
            "byteLength" : 191436,
            "byteOffset" : 191436
        },
        {
            "buffer" : 0,
            "byteLength" : 127624,
            "byteOffset" : 382872
        },
        {
            "buffer" : 0,
            "byteLength" : 61500,
            "byteOffset" : 510496
        }
    ],
    "buffers" : [
        {
            "byteLength" : 571996,
            "uri" : "data:application/octet-stream;base64,"
        }
    ]
}
