{
    "asset" : {
        "generator" : "Khronos glTF Blender I/O v1.1.46",
        "version" : "2.0"
    },
    "scene" : 0,
    "scenes" : [
        {
            "name" : "Scene",
            "nodes" : [
                0,
                3,
                4,
                5,
                6,
                7
            ]
        }
    ],
    "nodes" : [
        {
            "name" : "Camera",
            "rotation" : [
                0.483536034822464,
                0.33687159419059753,
                -0.20870360732078552,
                0.7804827094078064
            ],
            "translation" : [
                7.358891487121582,
                4.958309173583984,
                6.925790786743164
            ]
        },
        {
            "mesh" : 0,
            "name" : "The_City:bldgs2",
            "rotation" : [
                0,
                0,
                -0.7085219621658325,
                0.7056887745857239
            ],
            "scale" : [
                10.779117584228516,
                10.4173583984375,
                10.779117584228516
            ],
            "translation" : [
                -13889.04296875,
                -5048.958984375,
                401.8658447265625
            ]
        },
        {
            "mesh" : 1,
            "name" : "The_City:mesh01",
            "rotation" : [
                0,
                0,
                -0.7085219621658325,
                0.7056887745857239
            ],
            "scale" : [
                10.779117584228516,
                10.4173583984375,
                10.779117584228516
            ],
            "translation" : [
                -13889.04296875,
                -5048.958984375,
                401.8658447265625
            ]
        },
        {
            "children" : [
                1,
                2
            ],
            "name" : "group1",
            "rotation" : [
                0.7071068286895752,
                0,
                0,
                0.7071067094802856
            ],
            "scale" : [
                0.009999999776482582,
                0.009999999776482582,
                0.009999999776482582
            ]
        },
        {
            "mesh" : 2,
            "name" : "instance_0.035",
            "translation" : [
                -23.200088500976562,
                -5.142674446105957,
                -698.477783203125
            ]
        },
        {
            "name" : "instance_0.041",
            "translation" : [
                -7.874015808105469,
                0,
                -8.090500831604004
            ]
        },
        {
            "name" : "instance_0.042",
            "translation" : [
                -7.874015808105469,
                0,
                -8.090500831604004
            ]
        },
        {
            "mesh" : 3,
            "name" : "instance_0.046",
            "translation" : [
                -7.874015808105469,
                0,
                -8.090500831604004
            ]
        }
    ],
    "materials" : [
        {
            "doubleSided" : true,
            "emissiveFactor" : [
                0,
                0,
                0
            ],
            "name" : "lambert4",
            "pbrMetallicRoughness" : {
                "metallicFactor" : 0,
                "roughnessFactor" : 0.5527864098548889
            }
        },
        {
            "doubleSided" : true,
            "emissiveFactor" : [
                0,
                0,
                0
            ],
            "name" : "lambert3",
            "pbrMetallicRoughness" : {
                "metallicFactor" : 0,
                "roughnessFactor" : 0.5527864098548889
            }
        },
        {
            "doubleSided" : true,
            "emissiveFactor" : [
                0,
                0,
                0
            ],
            "name" : "material.004",
            "pbrMetallicRoughness" : {
                "baseColorFactor" : [
                    0.6705881953239441,
                    0.6901960968971252,
                    0.800000011920929,
                    1
                ],
                "metallicFactor" : 0,
                "roughnessFactor" : 0.5
            }
        },
        {
            "doubleSided" : true,
            "emissiveFactor" : [
                0,
                0,
                0
            ],
            "name" : "material_1.002",
            "pbrMetallicRoughness" : {
                "baseColorFactor" : [
                    1,
                    1,
                    1,
                    1
                ],
                "metallicFactor" : 0,
                "roughnessFactor" : 0.5
            }
        },
        {
            "doubleSided" : true,
            "emissiveFactor" : [
                0,
                0,
                0
            ],
            "name" : "material.005",
            "pbrMetallicRoughness" : {
                "baseColorFactor" : [
                    0.6705881953239441,
                    0.6901960968971252,
                    0.800000011920929,
                    1
                ],
                "metallicFactor" : 0,
                "roughnessFactor" : 0.5
            }
        },
        {
            "doubleSided" : true,
            "emissiveFactor" : [
                0,
                0,
                0
            ],
            "name" : "material_1.003",
            "pbrMetallicRoughness" : {
                "baseColorFactor" : [
                    1,
                    1,
                    1,
                    1
                ],
                "metallicFactor" : 0,
                "roughnessFactor" : 0.5
            }
        }
    ],
    "meshes" : [
        {
            "name" : "Mesh.001",
            "primitives" : [
                {
                    "attributes" : {
                        "POSITION" : 0,
                        "NORMAL" : 1,
                        "TEXCOORD_0" : 2
                    },
                    "indices" : 3,
                    "material" : 0
                }
            ]
        },
        {
            "name" : "Mesh",
            "primitives" : [
                {
                    "attributes" : {
                        "POSITION" : 4,
                        "NORMAL" : 5,
                        "TEXCOORD_0" : 6
                    },
                    "indices" : 7,
                    "material" : 1
                }
            ]
        },
        {
            "name" : "ID667.002",
            "primitives" : [
                {
                    "attributes" : {
                        "POSITION" : 8,
                        "NORMAL" : 9
                    },
                    "indices" : 10,
                    "material" : 2
                },
                {
                    "attributes" : {
                        "POSITION" : 11,
                        "NORMAL" : 12
                    },
                    "indices" : 13,
                    "material" : 3
                }
            ]
        },
        {
            "name" : "ID667.003",
            "primitives" : [
                {
                    "attributes" : {
                        "POSITION" : 14,
                        "NORMAL" : 15
                    },
                    "indices" : 10,
                    "material" : 4
                },
                {
                    "attributes" : {
                        "POSITION" : 16,
                        "NORMAL" : 17
                    },
                    "indices" : 13,
                    "material" : 5
                }
            ]
        }
    ],
    "accessors" : [
        {
            "bufferView" : 0,
            "componentType" : 5126,
            "count" : 12447,
            "max" : [
                563.947021484375,
                -16.760099411010742,
                -27.952199935913086
            ],
            "min" : [
                -1099.9300537109375,
                -1643.4300537109375,
                -870.89501953125
            ],
            "type" : "VEC3"
        },
        {
            "bufferView" : 1,
            "componentType" : 5126,
            "count" : 12447,
            "type" : "VEC3"
        },
        {
            "bufferView" : 2,
            "componentType" : 5126,
            "count" : 12447,
            "type" : "VEC2"
        },
        {
            "bufferView" : 3,
            "componentType" : 5123,
            "count" : 31374,
            "type" : "SCALAR"
        },
        {
            "bufferView" : 4,
            "componentType" : 5126,
            "count" : 1896,
            "max" : [
                560.0460205078125,
                10.433899879455566,
                -35.86539840698242
            ],
            "min" : [
                -1281.739990234375,
                -1588.97998046875,
                -204.20199584960938
            ],
            "type" : "VEC3"
        },
        {
            "bufferView" : 5,
            "componentType" : 5126,
            "count" : 1896,
            "type" : "VEC3"
        },
        {
            "bufferView" : 6,
            "componentType" : 5126,
            "count" : 1896,
            "type" : "VEC2"
        },
        {
            "bufferView" : 7,
            "componentType" : 5123,
            "count" : 3132,
            "type" : "SCALAR"
        },
        {
            "bufferView" : 8,
            "componentType" : 5126,
            "count" : 8,
            "max" : [
                1584.6461181640625,
                0,
                403.7597961425781
            ],
            "min" : [
                5.905511856079102,
                0,
                401.7912902832031
            ],
            "type" : "VEC3"
        },
        {
            "bufferView" : 9,
            "componentType" : 5126,
            "count" : 8,
            "type" : "VEC3"
        },
        {
            "bufferView" : 10,
            "componentType" : 5123,
            "count" : 12,
            "type" : "SCALAR"
        },
        {
            "bufferView" : 11,
            "componentType" : 5126,
            "count" : 8,
            "max" : [
                1584.6461181640625,
                0,
                403.7597961425781
            ],
            "min" : [
                5.905511856079102,
                0,
                401.7912902832031
            ],
            "type" : "VEC3"
        },
        {
            "bufferView" : 12,
            "componentType" : 5126,
            "count" : 8,
            "type" : "VEC3"
        },
        {
            "bufferView" : 13,
            "componentType" : 5123,
            "count" : 12,
            "type" : "SCALAR"
        },
        {
            "bufferView" : 14,
            "componentType" : 5126,
            "count" : 8,
            "max" : [
                1584.6461181640625,
                0,
                403.7597961425781
            ],
            "min" : [
                5.905511856079102,
                0,
                401.7912902832031
            ],
            "type" : "VEC3"
        },
        {
            "bufferView" : 15,
            "componentType" : 5126,
            "count" : 8,
            "type" : "VEC3"
        },
        {
            "bufferView" : 16,
            "componentType" : 5126,
            "count" : 8,
            "max" : [
                1584.6461181640625,
                0,
                403.7597961425781
            ],
            "min" : [
                5.905511856079102,
                0,
                401.7912902832031
            ],
            "type" : "VEC3"
        },
        {
            "bufferView" : 17,
            "componentType" : 5126,
            "count" : 8,
            "type" : "VEC3"
        }
    ],
    "bufferViews" : [
        {
            "buffer" : 0,
            "byteLength" : 149364,
            "byteOffset" : 0
        },
        {
            "buffer" : 0,
            "byteLength" : 149364,
            "byteOffset" : 149364
        },
        {
            "buffer" : 0,
            "byteLength" : 99576,
            "byteOffset" : 298728
        },
        {
            "buffer" : 0,
            "byteLength" : 62748,
            "byteOffset" : 398304
        },
        {
            "buffer" : 0,
            "byteLength" : 22752,
            "byteOffset" : 461052
        },
        {
            "buffer" : 0,
            "byteLength" : 22752,
            "byteOffset" : 483804
        },
        {
            "buffer" : 0,
            "byteLength" : 15168,
            "byteOffset" : 506556
        },
        {
            "buffer" : 0,
            "byteLength" : 6264,
            "byteOffset" : 521724
        },
        {
            "buffer" : 0,
            "byteLength" : 96,
            "byteOffset" : 527988
        },
        {
            "buffer" : 0,
            "byteLength" : 96,
            "byteOffset" : 528084
        },
        {
            "buffer" : 0,
            "byteLength" : 24,
            "byteOffset" : 528180
        },
        {
            "buffer" : 0,
            "byteLength" : 96,
            "byteOffset" : 528204
        },
        {
            "buffer" : 0,
            "byteLength" : 96,
            "byteOffset" : 528300
        },
        {
            "buffer" : 0,
            "byteLength" : 24,
            "byteOffset" : 528396
        },
        {
            "buffer" : 0,
            "byteLength" : 96,
            "byteOffset" : 528420
        },
        {
            "buffer" : 0,
            "byteLength" : 96,
            "byteOffset" : 528516
        },
        {
            "buffer" : 0,
            "byteLength" : 96,
            "byteOffset" : 528612
        },
        {
            "buffer" : 0,
            "byteLength" : 96,
            "byteOffset" : 528708
        }
    ],
    "buffers" : [
        {
            "byteLength" : 528804,
            "uri" : "data:application/octet-stream;base64,"
        }
    ]
}
