{
    "asset" : {
        "generator" : "Khronos glTF Blender I/O v0.9.36",
        "version" : "2.0"
    },
    "scene" : 0,
    "scenes" : [
        {
            "name" : "Scene",
            "nodes" : [
                0,
                1,
                2,
                3,
                4
            ]
        }
    ],
    "nodes" : [
        {
            "name" : "Light",
            "rotation" : [
                0.16907575726509094,
                0.7558803558349609,
                -0.27217137813568115,
                0.570947527885437
            ],
            "translation" : [
                4.076245307922363,
                5.903861999511719,
                -1.0054539442062378
            ]
        },
        {
            "name" : "Camera",
            "rotation" : [
                0.483536034822464,
                0.33687159419059753,
                -0.20870360732078552,
                0.7804827094078064
            ],
            "translation" : [
                7.358891487121582,
                4.958309173583984,
                6.925790786743164
            ]
        },
        {
            "mesh" : 0,
            "name" : "Circle.002",
            "rotation" : [
                0.002445108024403453,
                0.47152116894721985,
                -0.8818314671516418,
                -0.005921083502471447
            ],
            "scale" : [
                -0.1720580905675888,
                -0.2901938259601593,
                -0.1726587414741516
            ],
            "translation" : [
                1.0113317966461182,
                0.26581186056137085,
                1.197413444519043
            ]
        },
        {
            "name" : "instance_1.136",
            "rotation" : [
                0.7071068286895752,
                0,
                0,
                0.7071067094802856
            ],
            "scale" : [
                92,
                92.00000762939453,
                92.00000762939453
            ],
            "translation" : [
                7190.0234375,
                11131.7412109375,
                0.001495647942647338
            ]
        },
        {
            "name" : "skp_camera_Last_Saved_SketchUp_View.678",
            "rotation" : [
                0.9041325449943542,
                0.019286271184682846,
                0.009102465584874153,
                0.4267195463180542
            ],
            "translation" : [
                1960.798095703125,
                -12547.64453125,
                21128.5703125
            ]
        }
    ],
    "materials" : [
        {
            "doubleSided" : true,
            "name" : "Material.056",
            "pbrMetallicRoughness" : {
                "baseColorTexture" : {
                    "index" : 0,
                    "texCoord" : 0
                },
                "metallicFactor" : 0,
                "roughnessFactor" : 0
            }
        }
    ],
    "meshes" : [
        {
            "name" : "Circle.006",
            "primitives" : [
                {
                    "attributes" : {
                        "POSITION" : 0,
                        "NORMAL" : 1,
                        "TEXCOORD_0" : 2
                    },
                    "indices" : 3,
                    "material" : 0
                }
            ]
        }
    ],
    "textures" : [
        {
            "source" : 0
        }
    ],
    "images" : [
        {
            "bufferView" : 4,
            "mimeType" : "image/png",
            "name" : "Image_0"
        }
    ],
    "accessors" : [
        {
            "bufferView" : 0,
            "componentType" : 5126,
            "count" : 474,
            "max" : [
                1.0010608434677124,
                0.2760028839111328,
                1
            ],
            "min" : [
                -1,
                0,
                -1.005793809890747
            ],
            "type" : "VEC3"
        },
        {
            "bufferView" : 1,
            "componentType" : 5126,
            "count" : 474,
            "type" : "VEC3"
        },
        {
            "bufferView" : 2,
            "componentType" : 5126,
            "count" : 474,
            "type" : "VEC2"
        },
        {
            "bufferView" : 3,
            "componentType" : 5123,
            "count" : 474,
            "type" : "SCALAR"
        }
    ],
    "bufferViews" : [
        {
            "buffer" : 0,
            "byteLength" : 5688,
            "byteOffset" : 0
        },
        {
            "buffer" : 0,
            "byteLength" : 5688,
            "byteOffset" : 5688
        },
        {
            "buffer" : 0,
            "byteLength" : 3792,
            "byteOffset" : 11376
        },
        {
            "buffer" : 0,
            "byteLength" : 948,
            "byteOffset" : 15168
        },
        {
            "buffer" : 0,
            "byteLength" : 166089,
            "byteOffset" : 16116
        }
    ],
    "buffers" : [
        {
            "byteLength" : 182208,
            "uri" : "data:application/octet-stream;base64,"
        }
    ]
}
