{
    "asset" : {
        "generator" : "Khronos glTF Blender I/O v0.9.36",
        "version" : "2.0"
    },
    "scene" : 0,
    "scenes" : [
        {
            "name" : "Scene",
            "nodes" : [
                7
            ]
        }
    ],
    "nodes" : [
        {
            "mesh" : 0,
            "name" : "group_1",
            "scale" : [
                2.9608137607574463,
                2.748502016067505,
                2.7582201957702637
            ],
            "translation" : [
                -876.7779541015625,
                933.2129516601562,
                318.781982421875
            ]
        },
        {
            "mesh" : 1,
            "name" : "group_1.001",
            "scale" : [
                2.9608137607574463,
                2.748502016067505,
                2.7582201957702637
            ],
            "translation" : [
                -876.7779541015625,
                933.2129516601562,
                318.781982421875
            ]
        },
        {
            "mesh" : 2,
            "name" : "group_1.002",
            "scale" : [
                2.9608137607574463,
                2.748502016067505,
                2.7582201957702637
            ],
            "translation" : [
                -876.7779541015625,
                933.2129516601562,
                318.781982421875
            ]
        },
        {
            "mesh" : 3,
            "name" : "group_2",
            "scale" : [
                2.9608137607574463,
                2.748502016067505,
                2.7582201957702637
            ],
            "translation" : [
                -788.78759765625,
                809.11962890625,
                236.86468505859375
            ]
        },
        {
            "mesh" : 4,
            "name" : "V-Ray_Omni_Light",
            "scale" : [
                2.9608137607574463,
                2.748502016067505,
                2.7582201957702637
            ],
            "translation" : [
                -701.5306396484375,
                1168.3623046875,
                223.00901794433594
            ]
        },
        {
            "children" : [
                0,
                1,
                2,
                3,
                4
            ],
            "name" : "group_0",
            "scale" : [
                0.031199999153614044,
                0.031199999153614044,
                0.031199999153614044
            ],
            "translation" : [
                6.422149658203125,
                6.038051128387451,
                30.866168975830078
            ]
        },
        {
            "name" : "skp_camera_Last_Saved_SketchUp_View",
            "rotation" : [
                0.7071068286895752,
                0,
                0,
                0.7071067094802856
            ],
            "translation" : [
                9.208251953125,
                9.178439140319824,
                47.159420013427734
            ]
        },
        {
            "children" : [
                5,
                6
            ],
            "name" : "SketchUp",
            "rotation" : [
                -0.9999750852584839,
                0,
                0,
                -0.007060632109642029
            ],
            "scale" : [
                0.025313222780823708,
                0.025313381105661392,
                0.02608591504395008
            ],
            "translation" : [
                0.04733377695083618,
                2.255249500274658,
                0.7698318958282471
            ]
        }
    ],
    "materials" : [
        {
            "doubleSided" : true,
            "name" : "material_1",
            "pbrMetallicRoughness" : {
                "baseColorFactor" : [
                    1,
                    1,
                    1,
                    0.38823530077934265
                ],
                "metallicFactor" : 0,
                "roughnessFactor" : 0.5
            }
        },
        {
            "doubleSided" : true,
            "name" : "__Color_000_1",
            "pbrMetallicRoughness" : {
                "baseColorFactor" : [
                    1,
                    1,
                    1,
                    1
                ],
                "metallicFactor" : 0,
                "roughnessFactor" : 0.5
            }
        },
        {
            "doubleSided" : true,
            "name" : "material_0",
            "pbrMetallicRoughness" : {
                "baseColorFactor" : [
                    0.6431373357772827,
                    0.6980392336845398,
                    0.7333332896232605,
                    1
                ],
                "metallicFactor" : 0,
                "roughnessFactor" : 0.5
            }
        },
        {
            "doubleSided" : true,
            "name" : "Color_002",
            "pbrMetallicRoughness" : {
                "baseColorFactor" : [
                    0.7764706015586853,
                    0.7764706015586853,
                    0.7764706015586853,
                    1
                ],
                "metallicFactor" : 0,
                "roughnessFactor" : 0.5
            }
        },
        {
            "doubleSided" : true,
            "name" : "material",
            "pbrMetallicRoughness" : {
                "baseColorFactor" : [
                    1,
                    1,
                    1,
                    1
                ],
                "metallicFactor" : 0,
                "roughnessFactor" : 0.5
            }
        }
    ],
    "meshes" : [
        {
            "name" : "ID20",
            "primitives" : [
                {
                    "attributes" : {
                        "POSITION" : 0,
                        "NORMAL" : 1
                    },
                    "indices" : 2,
                    "material" : 0
                },
                {
                    "attributes" : {
                        "POSITION" : 3,
                        "NORMAL" : 4
                    },
                    "indices" : 5,
                    "material" : 1
                }
            ]
        },
        {
            "name" : "ID34",
            "primitives" : [
                {
                    "attributes" : {
                        "POSITION" : 6,
                        "NORMAL" : 7
                    },
                    "indices" : 8,
                    "material" : 0
                },
                {
                    "attributes" : {
                        "POSITION" : 9,
                        "NORMAL" : 10
                    },
                    "indices" : 11,
                    "material" : 1
                }
            ]
        },
        {
            "name" : "ID42",
            "primitives" : [
                {
                    "attributes" : {
                        "POSITION" : 12,
                        "NORMAL" : 13
                    },
                    "indices" : 14,
                    "material" : 0
                },
                {
                    "attributes" : {
                        "POSITION" : 15,
                        "NORMAL" : 16
                    },
                    "indices" : 17,
                    "material" : 1
                }
            ]
        },
        {
            "name" : "ID51",
            "primitives" : [
                {
                    "attributes" : {
                        "POSITION" : 18,
                        "NORMAL" : 19
                    },
                    "indices" : 20,
                    "material" : 2
                },
                {
                    "attributes" : {
                        "POSITION" : 21,
                        "NORMAL" : 22
                    },
                    "indices" : 23,
                    "material" : 3
                }
            ]
        },
        {
            "name" : "ID5",
            "primitives" : [
                {
                    "attributes" : {
                        "POSITION" : 24,
                        "NORMAL" : 25
                    },
                    "indices" : 26,
                    "material" : 4
                },
                {
                    "attributes" : {
                        "POSITION" : 27,
                        "NORMAL" : 28
                    },
                    "indices" : 29,
                    "material" : 2
                }
            ]
        }
    ],
    "accessors" : [
        {
            "bufferView" : 0,
            "componentType" : 5126,
            "count" : 1026,
            "max" : [
                112.32989501953125,
                140.37979125976562,
                0
            ],
            "min" : [
                0,
                0,
                -112.32989501953125
            ],
            "type" : "VEC3"
        },
        {
            "bufferView" : 1,
            "componentType" : 5126,
            "count" : 1026,
            "type" : "VEC3"
        },
        {
            "bufferView" : 2,
            "componentType" : 5123,
            "count" : 6060,
            "type" : "SCALAR"
        },
        {
            "bufferView" : 3,
            "componentType" : 5126,
            "count" : 1026,
            "max" : [
                112.32989501953125,
                140.37979125976562,
                0
            ],
            "min" : [
                0,
                0,
                -112.32989501953125
            ],
            "type" : "VEC3"
        },
        {
            "bufferView" : 4,
            "componentType" : 5126,
            "count" : 1026,
            "type" : "VEC3"
        },
        {
            "bufferView" : 5,
            "componentType" : 5123,
            "count" : 6060,
            "type" : "SCALAR"
        },
        {
            "bufferView" : 6,
            "componentType" : 5126,
            "count" : 7,
            "max" : [
                56.16495895385742,
                140.37979125976562,
                -56.16495895385742
            ],
            "min" : [
                34.502349853515625,
                0,
                -58.9764289855957
            ],
            "type" : "VEC3"
        },
        {
            "bufferView" : 7,
            "componentType" : 5126,
            "count" : 7,
            "type" : "VEC3"
        },
        {
            "bufferView" : 8,
            "componentType" : 5123,
            "count" : 15,
            "type" : "SCALAR"
        },
        {
            "bufferView" : 9,
            "componentType" : 5126,
            "count" : 7,
            "max" : [
                56.16495895385742,
                140.37979125976562,
                -56.16495895385742
            ],
            "min" : [
                34.502349853515625,
                0,
                -58.9764289855957
            ],
            "type" : "VEC3"
        },
        {
            "bufferView" : 10,
            "componentType" : 5126,
            "count" : 7,
            "type" : "VEC3"
        },
        {
            "bufferView" : 11,
            "componentType" : 5123,
            "count" : 15,
            "type" : "SCALAR"
        },
        {
            "bufferView" : 12,
            "componentType" : 5126,
            "count" : 7,
            "max" : [
                56.16495895385742,
                140.37979125976562,
                -49.596717834472656
            ],
            "min" : [
                28.51624870300293,
                133.12359619140625,
                -56.773468017578125
            ],
            "type" : "VEC3"
        },
        {
            "bufferView" : 13,
            "componentType" : 5126,
            "count" : 7,
            "type" : "VEC3"
        },
        {
            "bufferView" : 14,
            "componentType" : 5123,
            "count" : 15,
            "type" : "SCALAR"
        },
        {
            "bufferView" : 15,
            "componentType" : 5126,
            "count" : 7,
            "max" : [
                56.16495895385742,
                140.37979125976562,
                -49.596717834472656
            ],
            "min" : [
                28.51624870300293,
                133.12359619140625,
                -56.773468017578125
            ],
            "type" : "VEC3"
        },
        {
            "bufferView" : 16,
            "componentType" : 5126,
            "count" : 7,
            "type" : "VEC3"
        },
        {
            "bufferView" : 17,
            "componentType" : 5123,
            "count" : 15,
            "type" : "SCALAR"
        },
        {
            "bufferView" : 18,
            "componentType" : 5126,
            "count" : 1585,
            "max" : [
                52.893218994140625,
                45.17675018310547,
                0
            ],
            "min" : [
                0,
                0,
                -52.893218994140625
            ],
            "type" : "VEC3"
        },
        {
            "bufferView" : 19,
            "componentType" : 5126,
            "count" : 1585,
            "type" : "VEC3"
        },
        {
            "bufferView" : 20,
            "componentType" : 5123,
            "count" : 8784,
            "type" : "SCALAR"
        },
        {
            "bufferView" : 21,
            "componentType" : 5126,
            "count" : 1585,
            "max" : [
                52.893218994140625,
                45.17675018310547,
                0
            ],
            "min" : [
                0,
                0,
                -52.893218994140625
            ],
            "type" : "VEC3"
        },
        {
            "bufferView" : 22,
            "componentType" : 5126,
            "count" : 1585,
            "type" : "VEC3"
        },
        {
            "bufferView" : 23,
            "componentType" : 5123,
            "count" : 8784,
            "type" : "SCALAR"
        },
        {
            "bufferView" : 24,
            "componentType" : 5126,
            "count" : 40,
            "max" : [
                10,
                10,
                10
            ],
            "min" : [
                -10,
                -10,
                -10
            ],
            "type" : "VEC3"
        },
        {
            "bufferView" : 25,
            "componentType" : 5126,
            "count" : 40,
            "type" : "VEC3"
        },
        {
            "bufferView" : 26,
            "componentType" : 5123,
            "count" : 144,
            "type" : "SCALAR"
        },
        {
            "bufferView" : 27,
            "componentType" : 5126,
            "count" : 40,
            "max" : [
                10,
                10,
                10
            ],
            "min" : [
                -10,
                -10,
                -10
            ],
            "type" : "VEC3"
        },
        {
            "bufferView" : 28,
            "componentType" : 5126,
            "count" : 40,
            "type" : "VEC3"
        },
        {
            "bufferView" : 29,
            "componentType" : 5123,
            "count" : 144,
            "type" : "SCALAR"
        }
    ],
    "bufferViews" : [
        {
            "buffer" : 0,
            "byteLength" : 12312,
            "byteOffset" : 0
        },
        {
            "buffer" : 0,
            "byteLength" : 12312,
            "byteOffset" : 12312
        },
        {
            "buffer" : 0,
            "byteLength" : 12120,
            "byteOffset" : 24624
        },
        {
            "buffer" : 0,
            "byteLength" : 12312,
            "byteOffset" : 36744
        },
        {
            "buffer" : 0,
            "byteLength" : 12312,
            "byteOffset" : 49056
        },
        {
            "buffer" : 0,
            "byteLength" : 12120,
            "byteOffset" : 61368
        },
        {
            "buffer" : 0,
            "byteLength" : 84,
            "byteOffset" : 73488
        },
        {
            "buffer" : 0,
            "byteLength" : 84,
            "byteOffset" : 73572
        },
        {
            "buffer" : 0,
            "byteLength" : 30,
            "byteOffset" : 73656
        },
        {
            "buffer" : 0,
            "byteLength" : 84,
            "byteOffset" : 73688
        },
        {
            "buffer" : 0,
            "byteLength" : 84,
            "byteOffset" : 73772
        },
        {
            "buffer" : 0,
            "byteLength" : 30,
            "byteOffset" : 73856
        },
        {
            "buffer" : 0,
            "byteLength" : 84,
            "byteOffset" : 73888
        },
        {
            "buffer" : 0,
            "byteLength" : 84,
            "byteOffset" : 73972
        },
        {
            "buffer" : 0,
            "byteLength" : 30,
            "byteOffset" : 74056
        },
        {
            "buffer" : 0,
            "byteLength" : 84,
            "byteOffset" : 74088
        },
        {
            "buffer" : 0,
            "byteLength" : 84,
            "byteOffset" : 74172
        },
        {
            "buffer" : 0,
            "byteLength" : 30,
            "byteOffset" : 74256
        },
        {
            "buffer" : 0,
            "byteLength" : 19020,
            "byteOffset" : 74288
        },
        {
            "buffer" : 0,
            "byteLength" : 19020,
            "byteOffset" : 93308
        },
        {
            "buffer" : 0,
            "byteLength" : 17568,
            "byteOffset" : 112328
        },
        {
            "buffer" : 0,
            "byteLength" : 19020,
            "byteOffset" : 129896
        },
        {
            "buffer" : 0,
            "byteLength" : 19020,
            "byteOffset" : 148916
        },
        {
            "buffer" : 0,
            "byteLength" : 17568,
            "byteOffset" : 167936
        },
        {
            "buffer" : 0,
            "byteLength" : 480,
            "byteOffset" : 185504
        },
        {
            "buffer" : 0,
            "byteLength" : 480,
            "byteOffset" : 185984
        },
        {
            "buffer" : 0,
            "byteLength" : 288,
            "byteOffset" : 186464
        },
        {
            "buffer" : 0,
            "byteLength" : 480,
            "byteOffset" : 186752
        },
        {
            "buffer" : 0,
            "byteLength" : 480,
            "byteOffset" : 187232
        },
        {
            "buffer" : 0,
            "byteLength" : 288,
            "byteOffset" : 187712
        }
    ],
    "buffers" : [
        {
            "byteLength" : 188000,
            "uri" : "data:application/octet-stream;base64,"
        }
    ]
}
