{
    "asset" : {
        "generator" : "Khronos glTF Blender I/O v0.9.36",
        "version" : "2.0"
    },
    "scene" : 0,
    "scenes" : [
        {
            "name" : "Scene",
            "nodes" : [
                0,
                1,
                2,
                3,
                4,
                5,
                6,
                7,
                8,
                9,
                10,
                11,
                12,
                13,
                14,
                15,
                16,
                17,
                18,
                19,
                20,
                21,
                22,
                23,
                24,
                25,
                26,
                27,
                28,
                29,
                30,
                31
            ]
        }
    ],
    "nodes" : [
        {
            "name" : "Light",
            "rotation" : [
                0.16907575726509094,
                0.7558803558349609,
                -0.27217137813568115,
                0.570947527885437
            ],
            "translation" : [
                4.076245307922363,
                5.903861999511719,
                -1.0054539442062378
            ]
        },
        {
            "name" : "Camera",
            "rotation" : [
                0.483536034822464,
                0.33687159419059753,
                -0.20870360732078552,
                0.7804827094078064
            ],
            "translation" : [
                7.358891487121582,
                4.958309173583984,
                6.925790786743164
            ]
        },
        {
            "mesh" : 0,
            "name" : "Cylinder.002",
            "rotation" : [
                0,
                -0.7071067094802856,
                -0.7071068286895752,
                0
            ],
            "scale" : [
                -0.053511377424001694,
                -0.06115473061800003,
                -0.3219323754310608
            ],
            "translation" : [
                1.7919433116912842,
                0.24154146015644073,
                2.018944501876831
            ]
        },
        {
            "name" : "Light.001",
            "rotation" : [
                0.5232754945755005,
                0.34203392267227173,
                -0.7269423604011536,
                0.284166157245636
            ],
            "translation" : [
                4.076245307922363,
                5.903862476348877,
                -1.0054532289505005
            ]
        },
        {
            "name" : "Camera.001",
            "rotation" : [
                0.8937963247299194,
                0.09062855690717697,
                -0.3857799172401428,
                0.20997287333011627
            ],
            "translation" : [
                7.358891487121582,
                4.958308696746826,
                6.925792217254639
            ]
        },
        {
            "mesh" : 1,
            "name" : "Cube.001",
            "rotation" : [
                1,
                0,
                0,
                -1.3435885648505064e-07
            ],
            "scale" : [
                1.2085862159729004,
                0.1368614137172699,
                1.3201253414154053
            ],
            "translation" : [
                0.10061610490083694,
                0.20191848278045654,
                0
            ]
        },
        {
            "name" : "Light.002",
            "rotation" : [
                -0.5709477066993713,
                0.2721712291240692,
                0.7558802962303162,
                0.16907566785812378
            ],
            "translation" : [
                4.076245307922363,
                5.903862953186035,
                -1.0054525136947632
            ]
        },
        {
            "name" : "Camera.002",
            "rotation" : [
                -0.7804825901985168,
                0.20870345830917358,
                0.33687177300453186,
                0.4835361838340759
            ],
            "translation" : [
                7.358891487121582,
                4.958308219909668,
                6.925793647766113
            ]
        },
        {
            "mesh" : 2,
            "name" : "Cube.002",
            "rotation" : [
                1,
                0,
                0,
                -1.3435885648505064e-07
            ],
            "scale" : [
                1.8163069486618042,
                0.08488845825195312,
                2.131075859069824
            ],
            "translation" : [
                0.05670217052102089,
                0,
                0
            ]
        },
        {
            "name" : "Light.003",
            "rotation" : [
                -0.2841666042804718,
                0.7269421815872192,
                0.3420339822769165,
                0.5232755541801453
            ],
            "translation" : [
                4.076245307922363,
                5.903863430023193,
                -1.0054517984390259
            ]
        },
        {
            "name" : "Camera.003",
            "rotation" : [
                -0.20997296273708344,
                0.3857799470424652,
                0.09062869846820831,
                0.8937962055206299
            ],
            "translation" : [
                7.358891487121582,
                4.95830774307251,
                6.925795078277588
            ]
        },
        {
            "name" : "Light.004",
            "rotation" : [
                -0.2841666042804718,
                0.7269421815872192,
                0.3420339822769165,
                0.5232755541801453
            ],
            "translation" : [
                4.076245307922363,
                5.903863430023193,
                -1.0054517984390259
            ]
        },
        {
            "name" : "Camera.004",
            "rotation" : [
                -0.20997296273708344,
                0.3857799470424652,
                0.09062869846820831,
                0.8937962055206299
            ],
            "translation" : [
                7.358891487121582,
                4.95830774307251,
                6.925795078277588
            ]
        },
        {
            "name" : "Light.005",
            "rotation" : [
                -0.2841666042804718,
                0.7269421815872192,
                0.3420339822769165,
                0.5232755541801453
            ],
            "translation" : [
                4.076245307922363,
                5.903863430023193,
                -1.0054517984390259
            ]
        },
        {
            "name" : "Camera.005",
            "rotation" : [
                -0.20997296273708344,
                0.3857799470424652,
                0.09062869846820831,
                0.8937962055206299
            ],
            "translation" : [
                7.358891487121582,
                4.95830774307251,
                6.925795078277588
            ]
        },
        {
            "name" : "Light.006",
            "rotation" : [
                -0.2841666042804718,
                0.7269421815872192,
                0.3420339822769165,
                0.5232755541801453
            ],
            "translation" : [
                4.076245307922363,
                5.903863430023193,
                -1.0054517984390259
            ]
        },
        {
            "name" : "Camera.006",
            "rotation" : [
                -0.20997296273708344,
                0.3857799470424652,
                0.09062869846820831,
                0.8937962055206299
            ],
            "translation" : [
                7.358891487121582,
                4.95830774307251,
                6.925795078277588
            ]
        },
        {
            "name" : "Light.007",
            "rotation" : [
                0.5232754945755005,
                0.34203392267227173,
                -0.7269423604011536,
                0.284166157245636
            ],
            "translation" : [
                4.076245307922363,
                5.903862476348877,
                -1.0054532289505005
            ]
        },
        {
            "name" : "Camera.007",
            "rotation" : [
                0.8937963247299194,
                0.09062855690717697,
                -0.3857799172401428,
                0.20997287333011627
            ],
            "translation" : [
                7.358891487121582,
                4.958308696746826,
                6.925792217254639
            ]
        },
        {
            "name" : "Light.008",
            "rotation" : [
                -0.5709477066993713,
                0.2721712291240692,
                0.7558802962303162,
                0.16907566785812378
            ],
            "translation" : [
                4.076245307922363,
                5.903862953186035,
                -1.0054525136947632
            ]
        },
        {
            "name" : "Camera.008",
            "rotation" : [
                -0.7804825901985168,
                0.20870345830917358,
                0.33687177300453186,
                0.4835361838340759
            ],
            "translation" : [
                7.358891487121582,
                4.958308219909668,
                6.925793647766113
            ]
        },
        {
            "name" : "Light.009",
            "rotation" : [
                -0.2841666042804718,
                0.7269421815872192,
                0.3420339822769165,
                0.5232755541801453
            ],
            "translation" : [
                4.076245307922363,
                5.903863430023193,
                -1.0054517984390259
            ]
        },
        {
            "name" : "Camera.009",
            "rotation" : [
                -0.20997296273708344,
                0.3857799470424652,
                0.09062869846820831,
                0.8937962055206299
            ],
            "translation" : [
                7.358891487121582,
                4.95830774307251,
                6.925795078277588
            ]
        },
        {
            "name" : "Light.010",
            "rotation" : [
                0.16907541453838348,
                0.7558804154396057,
                -0.27217110991477966,
                0.5709476470947266
            ],
            "translation" : [
                4.076245307922363,
                5.903863906860352,
                -1.0054510831832886
            ]
        },
        {
            "name" : "Camera.010",
            "rotation" : [
                0.48353615403175354,
                0.33687183260917664,
                -0.20870345830917358,
                0.7804827094078064
            ],
            "translation" : [
                7.358891487121582,
                4.958307266235352,
                6.9257965087890625
            ]
        },
        {
            "name" : "Light.011",
            "rotation" : [
                0.16907541453838348,
                0.7558804154396057,
                -0.27217110991477966,
                0.5709476470947266
            ],
            "translation" : [
                4.076245307922363,
                5.903863906860352,
                -1.0054510831832886
            ]
        },
        {
            "name" : "Camera.011",
            "rotation" : [
                0.48353615403175354,
                0.33687183260917664,
                -0.20870345830917358,
                0.7804827094078064
            ],
            "translation" : [
                7.358891487121582,
                4.958307266235352,
                6.9257965087890625
            ]
        },
        {
            "name" : "Light.012",
            "rotation" : [
                0.16907541453838348,
                0.7558804154396057,
                -0.27217110991477966,
                0.5709476470947266
            ],
            "translation" : [
                4.076245307922363,
                5.903863906860352,
                -1.0054510831832886
            ]
        },
        {
            "name" : "Camera.012",
            "rotation" : [
                0.48353615403175354,
                0.33687183260917664,
                -0.20870345830917358,
                0.7804827094078064
            ],
            "translation" : [
                7.358891487121582,
                4.958307266235352,
                6.9257965087890625
            ]
        },
        {
            "name" : "Light.013",
            "rotation" : [
                0.16907541453838348,
                0.7558804154396057,
                -0.27217110991477966,
                0.5709476470947266
            ],
            "translation" : [
                4.076245307922363,
                5.903863906860352,
                -1.0054510831832886
            ]
        },
        {
            "name" : "Camera.013",
            "rotation" : [
                0.48353615403175354,
                0.33687183260917664,
                -0.20870345830917358,
                0.7804827094078064
            ],
            "translation" : [
                7.358891487121582,
                4.958307266235352,
                6.9257965087890625
            ]
        },
        {
            "mesh" : 3,
            "name" : "Cylinder.000",
            "rotation" : [
                0,
                -0.7071067094802856,
                -0.7071068286895752,
                0
            ],
            "scale" : [
                -0.053511377424001694,
                -0.06115473061800003,
                -0.3219323754310608
            ],
            "translation" : [
                -1.7047151327133179,
                0.24154146015644073,
                1.991054654121399
            ]
        }
    ],
    "materials" : [
        {
            "doubleSided" : true,
            "name" : "Material.003",
            "pbrMetallicRoughness" : {
                "baseColorFactor" : [
                    0.39675524830818176,
                    0.39675524830818176,
                    0.40724021196365356,
                    1
                ],
                "metallicFactor" : 0,
                "roughnessFactor" : 0.5
            }
        },
        {
            "doubleSided" : true,
            "name" : "Material.001",
            "pbrMetallicRoughness" : {
                "baseColorFactor" : [
                    0.5033953189849854,
                    0.5033953189849854,
                    0.5033953189849854,
                    1
                ],
                "metallicFactor" : 0,
                "roughnessFactor" : 0.4000000059604645
            }
        },
        {
            "doubleSided" : true,
            "name" : "Material.002",
            "pbrMetallicRoughness" : {
                "baseColorFactor" : [
                    0.3406559228897095,
                    0.3406559228897095,
                    0.3406559228897095,
                    1
                ],
                "metallicFactor" : 0,
                "roughnessFactor" : 0.4000000059604645
            }
        },
        {
            "doubleSided" : true,
            "name" : "Material.004",
            "pbrMetallicRoughness" : {
                "baseColorFactor" : [
                    0.39675524830818176,
                    0.39675524830818176,
                    0.40724021196365356,
                    1
                ],
                "metallicFactor" : 0,
                "roughnessFactor" : 0.5
            }
        }
    ],
    "meshes" : [
        {
            "name" : "Cylinder.002",
            "primitives" : [
                {
                    "attributes" : {
                        "POSITION" : 0,
                        "NORMAL" : 1,
                        "TEXCOORD_0" : 2
                    },
                    "indices" : 3,
                    "material" : 0
                }
            ]
        },
        {
            "name" : "Cube.001",
            "primitives" : [
                {
                    "attributes" : {
                        "POSITION" : 4,
                        "NORMAL" : 5,
                        "TEXCOORD_0" : 6
                    },
                    "indices" : 7,
                    "material" : 1
                }
            ]
        },
        {
            "name" : "Cube.002",
            "primitives" : [
                {
                    "attributes" : {
                        "POSITION" : 8,
                        "NORMAL" : 9,
                        "TEXCOORD_0" : 10
                    },
                    "indices" : 7,
                    "material" : 2
                }
            ]
        },
        {
            "name" : "Cylinder.000",
            "primitives" : [
                {
                    "attributes" : {
                        "POSITION" : 11,
                        "NORMAL" : 12,
                        "TEXCOORD_0" : 13
                    },
                    "indices" : 3,
                    "material" : 3
                }
            ]
        }
    ],
    "accessors" : [
        {
            "bufferView" : 0,
            "componentType" : 5126,
            "count" : 338,
            "max" : [
                1,
                1,
                1
            ],
            "min" : [
                -1,
                -1,
                -1
            ],
            "type" : "VEC3"
        },
        {
            "bufferView" : 1,
            "componentType" : 5126,
            "count" : 338,
            "type" : "VEC3"
        },
        {
            "bufferView" : 2,
            "componentType" : 5126,
            "count" : 338,
            "type" : "VEC2"
        },
        {
            "bufferView" : 3,
            "componentType" : 5123,
            "count" : 372,
            "type" : "SCALAR"
        },
        {
            "bufferView" : 4,
            "componentType" : 5126,
            "count" : 24,
            "max" : [
                1,
                1,
                1
            ],
            "min" : [
                -1,
                -1,
                -1
            ],
            "type" : "VEC3"
        },
        {
            "bufferView" : 5,
            "componentType" : 5126,
            "count" : 24,
            "type" : "VEC3"
        },
        {
            "bufferView" : 6,
            "componentType" : 5126,
            "count" : 24,
            "type" : "VEC2"
        },
        {
            "bufferView" : 7,
            "componentType" : 5123,
            "count" : 36,
            "type" : "SCALAR"
        },
        {
            "bufferView" : 8,
            "componentType" : 5126,
            "count" : 24,
            "max" : [
                1,
                1,
                1
            ],
            "min" : [
                -1,
                -1,
                -1
            ],
            "type" : "VEC3"
        },
        {
            "bufferView" : 9,
            "componentType" : 5126,
            "count" : 24,
            "type" : "VEC3"
        },
        {
            "bufferView" : 10,
            "componentType" : 5126,
            "count" : 24,
            "type" : "VEC2"
        },
        {
            "bufferView" : 11,
            "componentType" : 5126,
            "count" : 338,
            "max" : [
                1,
                1,
                1
            ],
            "min" : [
                -1,
                -1,
                -1
            ],
            "type" : "VEC3"
        },
        {
            "bufferView" : 12,
            "componentType" : 5126,
            "count" : 338,
            "type" : "VEC3"
        },
        {
            "bufferView" : 13,
            "componentType" : 5126,
            "count" : 338,
            "type" : "VEC2"
        }
    ],
    "bufferViews" : [
        {
            "buffer" : 0,
            "byteLength" : 4056,
            "byteOffset" : 0
        },
        {
            "buffer" : 0,
            "byteLength" : 4056,
            "byteOffset" : 4056
        },
        {
            "buffer" : 0,
            "byteLength" : 2704,
            "byteOffset" : 8112
        },
        {
            "buffer" : 0,
            "byteLength" : 744,
            "byteOffset" : 10816
        },
        {
            "buffer" : 0,
            "byteLength" : 288,
            "byteOffset" : 11560
        },
        {
            "buffer" : 0,
            "byteLength" : 288,
            "byteOffset" : 11848
        },
        {
            "buffer" : 0,
            "byteLength" : 192,
            "byteOffset" : 12136
        },
        {
            "buffer" : 0,
            "byteLength" : 72,
            "byteOffset" : 12328
        },
        {
            "buffer" : 0,
            "byteLength" : 288,
            "byteOffset" : 12400
        },
        {
            "buffer" : 0,
            "byteLength" : 288,
            "byteOffset" : 12688
        },
        {
            "buffer" : 0,
            "byteLength" : 192,
            "byteOffset" : 12976
        },
        {
            "buffer" : 0,
            "byteLength" : 4056,
            "byteOffset" : 13168
        },
        {
            "buffer" : 0,
            "byteLength" : 4056,
            "byteOffset" : 17224
        },
        {
            "buffer" : 0,
            "byteLength" : 2704,
            "byteOffset" : 21280
        }
    ],
    "buffers" : [
        {
            "byteLength" : 23984,
            "uri" : "data:application/octet-stream;base64,"
        }
    ]
}
