{
    "asset" : {
        "generator" : "Khronos glTF Blender I/O v0.9.36",
        "version" : "2.0"
    },
    "scene" : 0,
    "scenes" : [
        {
            "name" : "Scene",
            "nodes" : [
                0,
                1,
                2,
                3,
                4,
                5,
                6,
                7,
                8,
                9,
                10,
                11,
                12,
                13,
                14,
                15
            ]
        }
    ],
    "nodes" : [
        {
            "mesh" : 0,
            "name" : "Cylinder.002",
            "rotation" : [
                0,
                -0.7071067094802856,
                -0.7071068286895752,
                0
            ],
            "scale" : [
                -0.04132508859038353,
                -0.047227803617715836,
                -0.3219324052333832
            ],
            "translation" : [
                -1.03095543384552,
                0.3066786229610443,
                1.184940218925476
            ]
        },
        {
            "name" : "Light",
            "rotation" : [
                0.5232754945755005,
                0.34203392267227173,
                -0.7269423604011536,
                0.284166157245636
            ],
            "translation" : [
                4.076245307922363,
                5.903862476348877,
                -1.0054532289505005
            ]
        },
        {
            "name" : "Camera",
            "rotation" : [
                0.8937963247299194,
                0.09062855690717697,
                -0.3857799172401428,
                0.20997287333011627
            ],
            "translation" : [
                7.358891487121582,
                4.958308696746826,
                6.925792217254639
            ]
        },
        {
            "mesh" : 1,
            "name" : "Cube.001",
            "rotation" : [
                -0.7070000171661377,
                0,
                0,
                0.7070000171661377
            ],
            "scale" : [
                1.2089999914169312,
                1.3199999332427979,
                0.13699999451637268
            ],
            "translation" : [
                0.10062000155448914,
                0.20192000269889832,
                0
            ]
        },
        {
            "name" : "Light.001",
            "rotation" : [
                -0.5709477066993713,
                0.2721712291240692,
                0.7558802962303162,
                0.16907566785812378
            ],
            "translation" : [
                4.076245307922363,
                5.903862953186035,
                -1.0054525136947632
            ]
        },
        {
            "name" : "Camera.001",
            "rotation" : [
                -0.7804825901985168,
                0.20870345830917358,
                0.33687177300453186,
                0.4835361838340759
            ],
            "translation" : [
                7.358891487121582,
                4.958308219909668,
                6.925793647766113
            ]
        },
        {
            "mesh" : 2,
            "name" : "Cube.002",
            "rotation" : [
                -0.7070000171661377,
                0,
                0,
                0.7070000171661377
            ],
            "scale" : [
                1.815999984741211,
                2.13100004196167,
                0.08500000089406967
            ],
            "translation" : [
                0.05670199915766716,
                0,
                0
            ]
        },
        {
            "name" : "Light.002",
            "rotation" : [
                -0.2841666042804718,
                0.7269421815872192,
                0.3420339822769165,
                0.5232755541801453
            ],
            "translation" : [
                4.076245307922363,
                5.903863430023193,
                -1.0054517984390259
            ]
        },
        {
            "name" : "Camera.002",
            "rotation" : [
                -0.20997296273708344,
                0.3857799470424652,
                0.09062869846820831,
                0.8937962055206299
            ],
            "translation" : [
                7.358891487121582,
                4.95830774307251,
                6.925795078277588
            ]
        },
        {
            "name" : "Light.003",
            "rotation" : [
                -0.2841666042804718,
                0.7269421815872192,
                0.3420339822769165,
                0.5232755541801453
            ],
            "translation" : [
                4.076245307922363,
                5.903863430023193,
                -1.0054517984390259
            ]
        },
        {
            "name" : "Camera.003",
            "rotation" : [
                -0.20997296273708344,
                0.3857799470424652,
                0.09062869846820831,
                0.8937962055206299
            ],
            "translation" : [
                7.358891487121582,
                4.95830774307251,
                6.925795078277588
            ]
        },
        {
            "name" : "Light.004",
            "rotation" : [
                -0.2841666042804718,
                0.7269421815872192,
                0.3420339822769165,
                0.5232755541801453
            ],
            "translation" : [
                4.076245307922363,
                5.903863430023193,
                -1.0054517984390259
            ]
        },
        {
            "name" : "Camera.004",
            "rotation" : [
                -0.20997296273708344,
                0.3857799470424652,
                0.09062869846820831,
                0.8937962055206299
            ],
            "translation" : [
                7.358891487121582,
                4.95830774307251,
                6.925795078277588
            ]
        },
        {
            "name" : "Light.005",
            "rotation" : [
                -0.2841666042804718,
                0.7269421815872192,
                0.3420339822769165,
                0.5232755541801453
            ],
            "translation" : [
                4.076245307922363,
                5.903863430023193,
                -1.0054517984390259
            ]
        },
        {
            "name" : "Camera.005",
            "rotation" : [
                -0.20997296273708344,
                0.3857799470424652,
                0.09062869846820831,
                0.8937962055206299
            ],
            "translation" : [
                7.358891487121582,
                4.95830774307251,
                6.925795078277588
            ]
        },
        {
            "mesh" : 3,
            "name" : "Cylinder.000",
            "rotation" : [
                0,
                -0.7071067094802856,
                -0.7071068286895752,
                0
            ],
            "scale" : [
                -0.04132508859038353,
                -0.047227803617715836,
                -0.3219324052333832
            ],
            "translation" : [
                1.2607487440109253,
                0.3066786229610443,
                1.184940218925476
            ]
        }
    ],
    "materials" : [
        {
            "doubleSided" : true,
            "name" : "Material.003",
            "pbrMetallicRoughness" : {
                "baseColorTexture" : {
                    "index" : 0,
                    "texCoord" : 0
                },
                "metallicFactor" : 0,
                "roughnessFactor" : 0.5
            }
        },
        {
            "doubleSided" : true,
            "name" : "Material.001",
            "pbrMetallicRoughness" : {
                "baseColorTexture" : {
                    "index" : 1,
                    "texCoord" : 0
                },
                "metallicFactor" : 0,
                "roughnessFactor" : 0.4000000059604645
            }
        },
        {
            "doubleSided" : true,
            "name" : "Material.002",
            "pbrMetallicRoughness" : {
                "baseColorTexture" : {
                    "index" : 2,
                    "texCoord" : 0
                },
                "metallicFactor" : 0,
                "roughnessFactor" : 0.4000000059604645
            }
        },
        {
            "doubleSided" : true,
            "name" : "Material.004",
            "pbrMetallicRoughness" : {
                "baseColorTexture" : {
                    "index" : 3,
                    "texCoord" : 0
                },
                "metallicFactor" : 0,
                "roughnessFactor" : 0.5
            }
        }
    ],
    "meshes" : [
        {
            "name" : "Cylinder.002",
            "primitives" : [
                {
                    "attributes" : {
                        "POSITION" : 0,
                        "NORMAL" : 1,
                        "TEXCOORD_0" : 2
                    },
                    "indices" : 3,
                    "material" : 0
                }
            ]
        },
        {
            "name" : "Cube.001",
            "primitives" : [
                {
                    "attributes" : {
                        "POSITION" : 4,
                        "NORMAL" : 5,
                        "TEXCOORD_0" : 6
                    },
                    "indices" : 7,
                    "material" : 1
                }
            ]
        },
        {
            "name" : "Cube.002",
            "primitives" : [
                {
                    "attributes" : {
                        "POSITION" : 8,
                        "NORMAL" : 9,
                        "TEXCOORD_0" : 10
                    },
                    "indices" : 11,
                    "material" : 2
                }
            ]
        },
        {
            "name" : "Cylinder.000",
            "primitives" : [
                {
                    "attributes" : {
                        "POSITION" : 12,
                        "NORMAL" : 13,
                        "TEXCOORD_0" : 14
                    },
                    "indices" : 3,
                    "material" : 3
                }
            ]
        }
    ],
    "textures" : [
        {
            "source" : 0
        },
        {
            "source" : 0
        },
        {
            "source" : 1
        },
        {
            "source" : 0
        }
    ],
    "images" : [
        {
            "bufferView" : 4,
            "mimeType" : "image/jpeg",
            "name" : "istockphoto-629820716-1024x1024"
        },
        {
            "bufferView" : 13,
            "mimeType" : "image/jpeg",
            "name" : "028d94bf35cd8aa0f974cc25e70b7f33"
        }
    ],
    "accessors" : [
        {
            "bufferView" : 0,
            "componentType" : 5126,
            "count" : 338,
            "max" : [
                1,
                1,
                1
            ],
            "min" : [
                -1,
                -1,
                -1
            ],
            "type" : "VEC3"
        },
        {
            "bufferView" : 1,
            "componentType" : 5126,
            "count" : 338,
            "type" : "VEC3"
        },
        {
            "bufferView" : 2,
            "componentType" : 5126,
            "count" : 338,
            "type" : "VEC2"
        },
        {
            "bufferView" : 3,
            "componentType" : 5123,
            "count" : 372,
            "type" : "SCALAR"
        },
        {
            "bufferView" : 5,
            "componentType" : 5126,
            "count" : 24,
            "max" : [
                1,
                1,
                1
            ],
            "min" : [
                -1,
                -1,
                -1
            ],
            "type" : "VEC3"
        },
        {
            "bufferView" : 6,
            "componentType" : 5126,
            "count" : 24,
            "type" : "VEC3"
        },
        {
            "bufferView" : 7,
            "componentType" : 5126,
            "count" : 24,
            "type" : "VEC2"
        },
        {
            "bufferView" : 8,
            "componentType" : 5123,
            "count" : 36,
            "type" : "SCALAR"
        },
        {
            "bufferView" : 9,
            "componentType" : 5126,
            "count" : 26,
            "max" : [
                1,
                1,
                1
            ],
            "min" : [
                -1,
                -1,
                -1
            ],
            "type" : "VEC3"
        },
        {
            "bufferView" : 10,
            "componentType" : 5126,
            "count" : 26,
            "type" : "VEC3"
        },
        {
            "bufferView" : 11,
            "componentType" : 5126,
            "count" : 26,
            "type" : "VEC2"
        },
        {
            "bufferView" : 12,
            "componentType" : 5123,
            "count" : 36,
            "type" : "SCALAR"
        },
        {
            "bufferView" : 14,
            "componentType" : 5126,
            "count" : 338,
            "max" : [
                1,
                1,
                1
            ],
            "min" : [
                -1,
                -1,
                -1
            ],
            "type" : "VEC3"
        },
        {
            "bufferView" : 15,
            "componentType" : 5126,
            "count" : 338,
            "type" : "VEC3"
        },
        {
            "bufferView" : 16,
            "componentType" : 5126,
            "count" : 338,
            "type" : "VEC2"
        }
    ],
    "bufferViews" : [
        {
            "buffer" : 0,
            "byteLength" : 4056,
            "byteOffset" : 0
        },
        {
            "buffer" : 0,
            "byteLength" : 4056,
            "byteOffset" : 4056
        },
        {
            "buffer" : 0,
            "byteLength" : 2704,
            "byteOffset" : 8112
        },
        {
            "buffer" : 0,
            "byteLength" : 744,
            "byteOffset" : 10816
        },
        {
            "buffer" : 0,
            "byteLength" : 473933,
            "byteOffset" : 11560
        },
        {
            "buffer" : 0,
            "byteLength" : 288,
            "byteOffset" : 485496
        },
        {
            "buffer" : 0,
            "byteLength" : 288,
            "byteOffset" : 485784
        },
        {
            "buffer" : 0,
            "byteLength" : 192,
            "byteOffset" : 486072
        },
        {
            "buffer" : 0,
            "byteLength" : 72,
            "byteOffset" : 486264
        },
        {
            "buffer" : 0,
            "byteLength" : 312,
            "byteOffset" : 486336
        },
        {
            "buffer" : 0,
            "byteLength" : 312,
            "byteOffset" : 486648
        },
        {
            "buffer" : 0,
            "byteLength" : 208,
            "byteOffset" : 486960
        },
        {
            "buffer" : 0,
            "byteLength" : 72,
            "byteOffset" : 487168
        },
        {
            "buffer" : 0,
            "byteLength" : 457769,
            "byteOffset" : 487240
        },
        {
            "buffer" : 0,
            "byteLength" : 4056,
            "byteOffset" : 945012
        },
        {
            "buffer" : 0,
            "byteLength" : 4056,
            "byteOffset" : 949068
        },
        {
            "buffer" : 0,
            "byteLength" : 2704,
            "byteOffset" : 953124
        }
    ],
    "buffers" : [
        {
            "byteLength" : 955828,
            "uri" : "data:application/octet-stream;base64,"
        }
    ]
}
