{
    "asset" : {
        "generator" : "Khronos glTF Blender I/O v0.9.36",
        "version" : "2.0"
    },
    "scene" : 0,
    "scenes" : [
        {
            "name" : "Scene",
            "nodes" : [
                0,
                1,
                2,
                3,
                4,
                5,
                6,
                7,
                8,
                9,
                10,
                11,
                12,
                13,
                14,
                15,
                16,
                17
            ]
        }
    ],
    "nodes" : [
        {
            "name" : "Light",
            "rotation" : [
                0.16907575726509094,
                0.7558803558349609,
                -0.27217137813568115,
                0.570947527885437
            ],
            "translation" : [
                4.076245307922363,
                5.903861999511719,
                -1.0054539442062378
            ]
        },
        {
            "name" : "Camera",
            "rotation" : [
                0.483536034822464,
                0.33687159419059753,
                -0.20870360732078552,
                0.7804827094078064
            ],
            "translation" : [
                7.358891487121582,
                4.958309173583984,
                6.925790786743164
            ]
        },
        {
            "mesh" : 0,
            "name" : "Cylinder.002",
            "rotation" : [
                0,
                1,
                0,
                0
            ],
            "scale" : [
                -0.04132508113980293,
                -0.3219324052333832,
                -0.047227807343006134
            ],
            "translation" : [
                -0.9915072321891785,
                0.30667850375175476,
                1.1849403381347656
            ]
        },
        {
            "name" : "Light.001",
            "rotation" : [
                -0.5709477066993713,
                0.2721712291240692,
                0.7558802962303162,
                0.16907566785812378
            ],
            "translation" : [
                4.076245307922363,
                5.903862953186035,
                -1.0054525136947632
            ]
        },
        {
            "name" : "Camera.001",
            "rotation" : [
                -0.7804825901985168,
                0.20870345830917358,
                0.33687177300453186,
                0.4835361838340759
            ],
            "translation" : [
                7.358891487121582,
                4.958308219909668,
                6.925793647766113
            ]
        },
        {
            "mesh" : 1,
            "name" : "Cube.001",
            "rotation" : [
                0.00015104289923328906,
                0,
                0,
                1
            ],
            "scale" : [
                1.2089999914169312,
                0.13695864379405975,
                1.3196016550064087
            ],
            "translation" : [
                0.10062000155448914,
                0.2019200325012207,
                0
            ]
        },
        {
            "name" : "Light.002",
            "rotation" : [
                -0.2841666042804718,
                0.7269421815872192,
                0.3420339822769165,
                0.5232755541801453
            ],
            "translation" : [
                4.076245307922363,
                5.903863430023193,
                -1.0054517984390259
            ]
        },
        {
            "name" : "Camera.002",
            "rotation" : [
                -0.20997296273708344,
                0.3857799470424652,
                0.09062869846820831,
                0.8937962055206299
            ],
            "translation" : [
                7.358891487121582,
                4.95830774307251,
                6.925795078277588
            ]
        },
        {
            "mesh" : 2,
            "name" : "Cube.002",
            "rotation" : [
                0.000151127198478207,
                0,
                0,
                1
            ],
            "scale" : [
                1.815999984741211,
                0.08497433364391327,
                2.130357027053833
            ],
            "translation" : [
                0.05670199915766716,
                0,
                0
            ]
        },
        {
            "name" : "Light.003",
            "rotation" : [
                0.16907541453838348,
                0.7558804154396057,
                -0.27217110991477966,
                0.5709476470947266
            ],
            "translation" : [
                4.076245307922363,
                5.903863906860352,
                -1.0054510831832886
            ]
        },
        {
            "name" : "Camera.003",
            "rotation" : [
                0.48353615403175354,
                0.33687183260917664,
                -0.20870345830917358,
                0.7804827094078064
            ],
            "translation" : [
                7.358891487121582,
                4.958307266235352,
                6.9257965087890625
            ]
        },
        {
            "name" : "Light.004",
            "rotation" : [
                0.16907541453838348,
                0.7558804154396057,
                -0.27217110991477966,
                0.5709476470947266
            ],
            "translation" : [
                4.076245307922363,
                5.903863906860352,
                -1.0054510831832886
            ]
        },
        {
            "name" : "Camera.004",
            "rotation" : [
                0.48353615403175354,
                0.33687183260917664,
                -0.20870345830917358,
                0.7804827094078064
            ],
            "translation" : [
                7.358891487121582,
                4.958307266235352,
                6.9257965087890625
            ]
        },
        {
            "name" : "Light.005",
            "rotation" : [
                0.16907541453838348,
                0.7558804154396057,
                -0.27217110991477966,
                0.5709476470947266
            ],
            "translation" : [
                4.076245307922363,
                5.903863906860352,
                -1.0054510831832886
            ]
        },
        {
            "name" : "Camera.005",
            "rotation" : [
                0.48353615403175354,
                0.33687183260917664,
                -0.20870345830917358,
                0.7804827094078064
            ],
            "translation" : [
                7.358891487121582,
                4.958307266235352,
                6.9257965087890625
            ]
        },
        {
            "name" : "Light.006",
            "rotation" : [
                0.16907541453838348,
                0.7558804154396057,
                -0.27217110991477966,
                0.5709476470947266
            ],
            "translation" : [
                4.076245307922363,
                5.903863906860352,
                -1.0054510831832886
            ]
        },
        {
            "name" : "Camera.006",
            "rotation" : [
                0.48353615403175354,
                0.33687183260917664,
                -0.20870345830917358,
                0.7804827094078064
            ],
            "translation" : [
                7.358891487121582,
                4.958307266235352,
                6.9257965087890625
            ]
        },
        {
            "mesh" : 3,
            "name" : "Cylinder.000",
            "rotation" : [
                0,
                1,
                0,
                0
            ],
            "scale" : [
                -0.04132508113980293,
                -0.3219324052333832,
                -0.047227807343006134
            ],
            "translation" : [
                1.2131261825561523,
                0.30667850375175476,
                1.1849403381347656
            ]
        }
    ],
    "materials" : [
        {
            "doubleSided" : true,
            "name" : "Material.003",
            "pbrMetallicRoughness" : {
                "baseColorFactor" : [
                    0.800000011920929,
                    0.800000011920929,
                    0.800000011920929,
                    1
                ],
                "metallicFactor" : 0,
                "roughnessFactor" : 0.5
            }
        },
        {
            "doubleSided" : true,
            "name" : "Material.001",
            "pbrMetallicRoughness" : {
                "baseColorTexture" : {
                    "index" : 0,
                    "texCoord" : 0
                },
                "metallicFactor" : 0,
                "roughnessFactor" : 0.4000000059604645
            }
        },
        {
            "doubleSided" : true,
            "name" : "Material.002",
            "pbrMetallicRoughness" : {
                "baseColorTexture" : {
                    "index" : 1,
                    "texCoord" : 0
                },
                "metallicFactor" : 0,
                "roughnessFactor" : 0
            }
        },
        {
            "doubleSided" : true,
            "name" : "Material.004",
            "pbrMetallicRoughness" : {
                "baseColorFactor" : [
                    0.800000011920929,
                    0.800000011920929,
                    0.800000011920929,
                    1
                ],
                "metallicFactor" : 0,
                "roughnessFactor" : 0.5
            }
        }
    ],
    "meshes" : [
        {
            "name" : "Cylinder.002",
            "primitives" : [
                {
                    "attributes" : {
                        "POSITION" : 0,
                        "NORMAL" : 1,
                        "TEXCOORD_0" : 2
                    },
                    "indices" : 3,
                    "material" : 0
                }
            ]
        },
        {
            "name" : "Cube.001",
            "primitives" : [
                {
                    "attributes" : {
                        "POSITION" : 4,
                        "NORMAL" : 5,
                        "TEXCOORD_0" : 6
                    },
                    "indices" : 7,
                    "material" : 1
                }
            ]
        },
        {
            "name" : "Cube.002",
            "primitives" : [
                {
                    "attributes" : {
                        "POSITION" : 8,
                        "NORMAL" : 9,
                        "TEXCOORD_0" : 10
                    },
                    "indices" : 11,
                    "material" : 2
                }
            ]
        },
        {
            "name" : "Cylinder.000",
            "primitives" : [
                {
                    "attributes" : {
                        "POSITION" : 12,
                        "NORMAL" : 13,
                        "TEXCOORD_0" : 14
                    },
                    "indices" : 3,
                    "material" : 3
                }
            ]
        }
    ],
    "textures" : [
        {
            "source" : 0
        },
        {
            "source" : 1
        }
    ],
    "images" : [
        {
            "bufferView" : 8,
            "mimeType" : "image/jpeg",
            "name" : "istockphoto-629820716-1024x1024"
        },
        {
            "bufferView" : 13,
            "mimeType" : "image/jpeg",
            "name" : "Capturar"
        }
    ],
    "accessors" : [
        {
            "bufferView" : 0,
            "componentType" : 5126,
            "count" : 364,
            "max" : [
                1,
                1,
                1
            ],
            "min" : [
                -1,
                -1,
                -1
            ],
            "type" : "VEC3"
        },
        {
            "bufferView" : 1,
            "componentType" : 5126,
            "count" : 364,
            "type" : "VEC3"
        },
        {
            "bufferView" : 2,
            "componentType" : 5126,
            "count" : 364,
            "type" : "VEC2"
        },
        {
            "bufferView" : 3,
            "componentType" : 5123,
            "count" : 372,
            "type" : "SCALAR"
        },
        {
            "bufferView" : 4,
            "componentType" : 5126,
            "count" : 24,
            "max" : [
                1,
                1,
                1
            ],
            "min" : [
                -1,
                -1,
                -1
            ],
            "type" : "VEC3"
        },
        {
            "bufferView" : 5,
            "componentType" : 5126,
            "count" : 24,
            "type" : "VEC3"
        },
        {
            "bufferView" : 6,
            "componentType" : 5126,
            "count" : 24,
            "type" : "VEC2"
        },
        {
            "bufferView" : 7,
            "componentType" : 5123,
            "count" : 36,
            "type" : "SCALAR"
        },
        {
            "bufferView" : 9,
            "componentType" : 5126,
            "count" : 26,
            "max" : [
                1,
                1,
                1
            ],
            "min" : [
                -1,
                -1,
                -1
            ],
            "type" : "VEC3"
        },
        {
            "bufferView" : 10,
            "componentType" : 5126,
            "count" : 26,
            "type" : "VEC3"
        },
        {
            "bufferView" : 11,
            "componentType" : 5126,
            "count" : 26,
            "type" : "VEC2"
        },
        {
            "bufferView" : 12,
            "componentType" : 5123,
            "count" : 36,
            "type" : "SCALAR"
        },
        {
            "bufferView" : 14,
            "componentType" : 5126,
            "count" : 364,
            "max" : [
                1,
                1,
                1
            ],
            "min" : [
                -1,
                -1,
                -1
            ],
            "type" : "VEC3"
        },
        {
            "bufferView" : 15,
            "componentType" : 5126,
            "count" : 364,
            "type" : "VEC3"
        },
        {
            "bufferView" : 16,
            "componentType" : 5126,
            "count" : 364,
            "type" : "VEC2"
        }
    ],
    "bufferViews" : [
        {
            "buffer" : 0,
            "byteLength" : 4368,
            "byteOffset" : 0
        },
        {
            "buffer" : 0,
            "byteLength" : 4368,
            "byteOffset" : 4368
        },
        {
            "buffer" : 0,
            "byteLength" : 2912,
            "byteOffset" : 8736
        },
        {
            "buffer" : 0,
            "byteLength" : 744,
            "byteOffset" : 11648
        },
        {
            "buffer" : 0,
            "byteLength" : 288,
            "byteOffset" : 12392
        },
        {
            "buffer" : 0,
            "byteLength" : 288,
            "byteOffset" : 12680
        },
        {
            "buffer" : 0,
            "byteLength" : 192,
            "byteOffset" : 12968
        },
        {
            "buffer" : 0,
            "byteLength" : 72,
            "byteOffset" : 13160
        },
        {
            "buffer" : 0,
            "byteLength" : 473933,
            "byteOffset" : 13232
        },
        {
            "buffer" : 0,
            "byteLength" : 312,
            "byteOffset" : 487168
        },
        {
            "buffer" : 0,
            "byteLength" : 312,
            "byteOffset" : 487480
        },
        {
            "buffer" : 0,
            "byteLength" : 208,
            "byteOffset" : 487792
        },
        {
            "buffer" : 0,
            "byteLength" : 72,
            "byteOffset" : 488000
        },
        {
            "buffer" : 0,
            "byteLength" : 155918,
            "byteOffset" : 488072
        },
        {
            "buffer" : 0,
            "byteLength" : 4368,
            "byteOffset" : 643992
        },
        {
            "buffer" : 0,
            "byteLength" : 4368,
            "byteOffset" : 648360
        },
        {
            "buffer" : 0,
            "byteLength" : 2912,
            "byteOffset" : 652728
        }
    ],
    "buffers" : [
        {
            "byteLength" : 655640,
            "uri" : "data:application/octet-stream;base64,"
        }
    ]
}
