{
    "asset" : {
        "generator" : "Khronos glTF Blender I/O v0.9.36",
        "version" : "2.0"
    },
    "scene" : 0,
    "scenes" : [
        {
            "name" : "Scene",
            "nodes" : [
                0,
                2,
                3,
                4,
                5
            ]
        }
    ],
    "nodes" : [
        {
            "mesh" : 0,
            "name" : "Carca\u00e7a",
            "rotation" : [
                0.5691176056861877,
                -0.4196488857269287,
                0.4196489751338959,
                0.5691174864768982
            ],
            "scale" : [
                1.0426498651504517,
                0.9390302896499634,
                1.0536010265350342
            ],
            "translation" : [
                6.310296058654785,
                1.2253949642181396,
                0.2799989581108093
            ]
        },
        {
            "mesh" : 1,
            "name" : "Rolamento",
            "rotation" : [
                0.7071068286895752,
                0,
                0,
                0.7071067094802856
            ],
            "scale" : [
                0.9568886160850525,
                0.9568886160850525,
                0.9568886160850525
            ],
            "translation" : [
                0,
                0,
                0.07728733867406845
            ]
        },
        {
            "children" : [
                1
            ],
            "mesh" : 2,
            "name" : "H\u00e9lices",
            "rotation" : [
                0,
                -0.5934731960296631,
                0,
                0.8048537373542786
            ],
            "scale" : [
                1.0896252393722534,
                1.101069688796997,
                0.9813370108604431
            ],
            "translation" : [
                5.696776390075684,
                1.1934783458709717,
                0.49550747871398926
            ]
        },
        {
            "mesh" : 3,
            "name" : "instance_0.026",
            "translation" : [
                -23.200088500976562,
                698.477783203125,
                -5.142674446105957
            ]
        },
        {
            "mesh" : 4,
            "name" : "instance_0.064",
            "translation" : [
                -7.874015808105469,
                8.090500831604004,
                0
            ]
        },
        {
            "mesh" : 5,
            "name" : "instance_0.065",
            "translation" : [
                -7.874015808105469,
                8.090500831604004,
                0
            ]
        }
    ],
    "materials" : [
        {
            "doubleSided" : true,
            "name" : "Carca\u00e7a",
            "pbrMetallicRoughness" : {
                "baseColorFactor" : [
                    0.3716789186000824,
                    0.3716789186000824,
                    0.3716789186000824,
                    1
                ],
                "metallicFactor" : 0.718181848526001,
                "roughnessFactor" : 0.5
            }
        },
        {
            "doubleSided" : true,
            "name" : "Rolamento",
            "pbrMetallicRoughness" : {
                "baseColorFactor" : [
                    0.800000011920929,
                    0.800000011920929,
                    0.800000011920929,
                    1
                ],
                "metallicFactor" : 0,
                "roughnessFactor" : 0.5
            }
        },
        {
            "doubleSided" : true,
            "name" : "H\u00e9lices",
            "pbrMetallicRoughness" : {
                "baseColorTexture" : {
                    "index" : 0,
                    "texCoord" : 0
                },
                "metallicFactor" : 0.8045454621315002,
                "roughnessFactor" : 0.5
            }
        },
        {
            "doubleSided" : true,
            "name" : "material_1",
            "pbrMetallicRoughness" : {
                "baseColorFactor" : [
                    1,
                    1,
                    1,
                    1
                ],
                "metallicFactor" : 0,
                "roughnessFactor" : 0.5
            }
        },
        {
            "doubleSided" : true,
            "name" : "Metal_Corrogated_Shiny",
            "pbrMetallicRoughness" : {
                "baseColorTexture" : {
                    "index" : 1,
                    "texCoord" : 0
                },
                "metallicFactor" : 0,
                "roughnessFactor" : 0.5
            }
        },
        {
            "doubleSided" : true,
            "name" : "material_1.001",
            "pbrMetallicRoughness" : {
                "baseColorFactor" : [
                    1,
                    1,
                    1,
                    1
                ],
                "metallicFactor" : 0,
                "roughnessFactor" : 0.5
            }
        },
        {
            "doubleSided" : true,
            "name" : "Metal_Corrogated_Shiny.001",
            "pbrMetallicRoughness" : {
                "baseColorTexture" : {
                    "index" : 2,
                    "texCoord" : 0
                },
                "metallicFactor" : 0,
                "roughnessFactor" : 0.5
            }
        }
    ],
    "meshes" : [
        {
            "name" : "Cylinder.001",
            "primitives" : [
                {
                    "attributes" : {
                        "POSITION" : 0,
                        "NORMAL" : 1,
                        "TEXCOORD_0" : 2
                    },
                    "indices" : 3,
                    "material" : 0
                }
            ]
        },
        {
            "name" : "Cylinder.002",
            "primitives" : [
                {
                    "attributes" : {
                        "POSITION" : 4,
                        "NORMAL" : 5,
                        "TEXCOORD_0" : 6
                    },
                    "indices" : 7,
                    "material" : 1
                }
            ]
        },
        {
            "name" : "Cube.001",
            "primitives" : [
                {
                    "attributes" : {
                        "POSITION" : 8,
                        "NORMAL" : 9,
                        "TEXCOORD_0" : 10
                    },
                    "indices" : 11,
                    "material" : 2
                }
            ]
        },
        {
            "name" : "ID593",
            "primitives" : [
                {
                    "attributes" : {
                        "POSITION" : 12,
                        "NORMAL" : 13,
                        "TEXCOORD_0" : 14
                    },
                    "indices" : 15,
                    "material" : 3
                },
                {
                    "attributes" : {
                        "POSITION" : 16,
                        "NORMAL" : 17,
                        "TEXCOORD_0" : 18
                    },
                    "indices" : 15,
                    "material" : 4
                }
            ]
        },
        {
            "name" : "ID517.001",
            "primitives" : [
                {
                    "attributes" : {
                        "POSITION" : 19,
                        "NORMAL" : 20,
                        "TEXCOORD_0" : 21
                    },
                    "indices" : 22,
                    "material" : 5
                },
                {
                    "attributes" : {
                        "POSITION" : 23,
                        "NORMAL" : 24,
                        "TEXCOORD_0" : 25
                    },
                    "indices" : 15,
                    "material" : 6
                }
            ]
        },
        {
            "name" : "ID507.001",
            "primitives" : [
                {
                    "attributes" : {
                        "POSITION" : 26,
                        "NORMAL" : 27,
                        "TEXCOORD_0" : 28
                    },
                    "indices" : 22,
                    "material" : 5
                },
                {
                    "attributes" : {
                        "POSITION" : 29,
                        "NORMAL" : 30,
                        "TEXCOORD_0" : 31
                    },
                    "indices" : 15,
                    "material" : 6
                }
            ]
        }
    ],
    "textures" : [
        {
            "source" : 0
        },
        {
            "source" : 1
        },
        {
            "source" : 1
        }
    ],
    "images" : [
        {
            "bufferView" : 12,
            "mimeType" : "image/jpeg",
            "name" : "metal"
        },
        {
            "bufferView" : 20,
            "mimeType" : "image/png",
            "name" : "Image_1"
        }
    ],
    "accessors" : [
        {
            "bufferView" : 0,
            "componentType" : 5126,
            "count" : 1716,
            "max" : [
                1.111251711845398,
                1.3575854301452637,
                1.1387228965759277
            ],
            "min" : [
                -1.1112099885940552,
                -2.3078176975250244,
                -1.2443606853485107
            ],
            "type" : "VEC3"
        },
        {
            "bufferView" : 1,
            "componentType" : 5126,
            "count" : 1716,
            "type" : "VEC3"
        },
        {
            "bufferView" : 2,
            "componentType" : 5126,
            "count" : 1716,
            "type" : "VEC2"
        },
        {
            "bufferView" : 3,
            "componentType" : 5123,
            "count" : 7656,
            "type" : "SCALAR"
        },
        {
            "bufferView" : 4,
            "componentType" : 5126,
            "count" : 352,
            "max" : [
                0.15621276199817657,
                0.3506091833114624,
                0.1562127321958542
            ],
            "min" : [
                -0.1562127321958542,
                -0.09392031282186508,
                -0.15621280670166016
            ],
            "type" : "VEC3"
        },
        {
            "bufferView" : 5,
            "componentType" : 5126,
            "count" : 352,
            "type" : "VEC3"
        },
        {
            "bufferView" : 6,
            "componentType" : 5126,
            "count" : 352,
            "type" : "VEC2"
        },
        {
            "bufferView" : 7,
            "componentType" : 5123,
            "count" : 1626,
            "type" : "SCALAR"
        },
        {
            "bufferView" : 8,
            "componentType" : 5126,
            "count" : 23100,
            "max" : [
                0.7838080525398254,
                0.7838999032974243,
                0.05489493906497955
            ],
            "min" : [
                -0.7840332388877869,
                -0.7835757732391357,
                -0.024327212944626808
            ],
            "type" : "VEC3"
        },
        {
            "bufferView" : 9,
            "componentType" : 5126,
            "count" : 23100,
            "type" : "VEC3"
        },
        {
            "bufferView" : 10,
            "componentType" : 5126,
            "count" : 23100,
            "type" : "VEC2"
        },
        {
            "bufferView" : 11,
            "componentType" : 5123,
            "count" : 37500,
            "type" : "SCALAR"
        },
        {
            "bufferView" : 13,
            "componentType" : 5126,
            "count" : 6,
            "max" : [
                787.4015502929688,
                -401.7912902832031,
                -133.03919982910156
            ],
            "min" : [
                740.157470703125,
                -401.7912902832031,
                -195.64779663085938
            ],
            "type" : "VEC3"
        },
        {
            "bufferView" : 14,
            "componentType" : 5126,
            "count" : 6,
            "type" : "VEC3"
        },
        {
            "bufferView" : 15,
            "componentType" : 5126,
            "count" : 6,
            "type" : "VEC2"
        },
        {
            "bufferView" : 16,
            "componentType" : 5123,
            "count" : 6,
            "type" : "SCALAR"
        },
        {
            "bufferView" : 17,
            "componentType" : 5126,
            "count" : 6,
            "max" : [
                787.4015502929688,
                -401.7912902832031,
                -133.03919982910156
            ],
            "min" : [
                740.157470703125,
                -401.7912902832031,
                -195.64779663085938
            ],
            "type" : "VEC3"
        },
        {
            "bufferView" : 18,
            "componentType" : 5126,
            "count" : 6,
            "type" : "VEC3"
        },
        {
            "bufferView" : 19,
            "componentType" : 5126,
            "count" : 6,
            "type" : "VEC2"
        },
        {
            "bufferView" : 21,
            "componentType" : 5126,
            "count" : 4,
            "max" : [
                1181.10205078125,
                -401.7912902832031,
                -133.03919982910156
            ],
            "min" : [
                1133.8580322265625,
                -401.7912902832031,
                -195.64779663085938
            ],
            "type" : "VEC3"
        },
        {
            "bufferView" : 22,
            "componentType" : 5126,
            "count" : 4,
            "type" : "VEC3"
        },
        {
            "bufferView" : 23,
            "componentType" : 5126,
            "count" : 4,
            "type" : "VEC2"
        },
        {
            "bufferView" : 24,
            "componentType" : 5123,
            "count" : 6,
            "type" : "SCALAR"
        },
        {
            "bufferView" : 25,
            "componentType" : 5126,
            "count" : 6,
            "max" : [
                1181.10205078125,
                -401.7912902832031,
                -133.03919982910156
            ],
            "min" : [
                1133.8580322265625,
                -401.7912902832031,
                -195.64779663085938
            ],
            "type" : "VEC3"
        },
        {
            "bufferView" : 26,
            "componentType" : 5126,
            "count" : 6,
            "type" : "VEC3"
        },
        {
            "bufferView" : 27,
            "componentType" : 5126,
            "count" : 6,
            "type" : "VEC2"
        },
        {
            "bufferView" : 28,
            "componentType" : 5126,
            "count" : 4,
            "max" : [
                1236.219970703125,
                -401.7912902832031,
                -133.03919982910156
            ],
            "min" : [
                1188.97607421875,
                -401.7912902832031,
                -195.64779663085938
            ],
            "type" : "VEC3"
        },
        {
            "bufferView" : 29,
            "componentType" : 5126,
            "count" : 4,
            "type" : "VEC3"
        },
        {
            "bufferView" : 30,
            "componentType" : 5126,
            "count" : 4,
            "type" : "VEC2"
        },
        {
            "bufferView" : 31,
            "componentType" : 5126,
            "count" : 6,
            "max" : [
                1236.219970703125,
                -401.7912902832031,
                -133.03919982910156
            ],
            "min" : [
                1188.97607421875,
                -401.7912902832031,
                -195.64779663085938
            ],
            "type" : "VEC3"
        },
        {
            "bufferView" : 32,
            "componentType" : 5126,
            "count" : 6,
            "type" : "VEC3"
        },
        {
            "bufferView" : 33,
            "componentType" : 5126,
            "count" : 6,
            "type" : "VEC2"
        }
    ],
    "bufferViews" : [
        {
            "buffer" : 0,
            "byteLength" : 20592,
            "byteOffset" : 0
        },
        {
            "buffer" : 0,
            "byteLength" : 20592,
            "byteOffset" : 20592
        },
        {
            "buffer" : 0,
            "byteLength" : 13728,
            "byteOffset" : 41184
        },
        {
            "buffer" : 0,
            "byteLength" : 15312,
            "byteOffset" : 54912
        },
        {
            "buffer" : 0,
            "byteLength" : 4224,
            "byteOffset" : 70224
        },
        {
            "buffer" : 0,
            "byteLength" : 4224,
            "byteOffset" : 74448
        },
        {
            "buffer" : 0,
            "byteLength" : 2816,
            "byteOffset" : 78672
        },
        {
            "buffer" : 0,
            "byteLength" : 3252,
            "byteOffset" : 81488
        },
        {
            "buffer" : 0,
            "byteLength" : 277200,
            "byteOffset" : 84740
        },
        {
            "buffer" : 0,
            "byteLength" : 277200,
            "byteOffset" : 361940
        },
        {
            "buffer" : 0,
            "byteLength" : 184800,
            "byteOffset" : 639140
        },
        {
            "buffer" : 0,
            "byteLength" : 75000,
            "byteOffset" : 823940
        },
        {
            "buffer" : 0,
            "byteLength" : 19001,
            "byteOffset" : 898940
        },
        {
            "buffer" : 0,
            "byteLength" : 72,
            "byteOffset" : 917944
        },
        {
            "buffer" : 0,
            "byteLength" : 72,
            "byteOffset" : 918016
        },
        {
            "buffer" : 0,
            "byteLength" : 48,
            "byteOffset" : 918088
        },
        {
            "buffer" : 0,
            "byteLength" : 12,
            "byteOffset" : 918136
        },
        {
            "buffer" : 0,
            "byteLength" : 72,
            "byteOffset" : 918148
        },
        {
            "buffer" : 0,
            "byteLength" : 72,
            "byteOffset" : 918220
        },
        {
            "buffer" : 0,
            "byteLength" : 48,
            "byteOffset" : 918292
        },
        {
            "buffer" : 0,
            "byteLength" : 3209,
            "byteOffset" : 918340
        },
        {
            "buffer" : 0,
            "byteLength" : 48,
            "byteOffset" : 921552
        },
        {
            "buffer" : 0,
            "byteLength" : 48,
            "byteOffset" : 921600
        },
        {
            "buffer" : 0,
            "byteLength" : 32,
            "byteOffset" : 921648
        },
        {
            "buffer" : 0,
            "byteLength" : 12,
            "byteOffset" : 921680
        },
        {
            "buffer" : 0,
            "byteLength" : 72,
            "byteOffset" : 921692
        },
        {
            "buffer" : 0,
            "byteLength" : 72,
            "byteOffset" : 921764
        },
        {
            "buffer" : 0,
            "byteLength" : 48,
            "byteOffset" : 921836
        },
        {
            "buffer" : 0,
            "byteLength" : 48,
            "byteOffset" : 921884
        },
        {
            "buffer" : 0,
            "byteLength" : 48,
            "byteOffset" : 921932
        },
        {
            "buffer" : 0,
            "byteLength" : 32,
            "byteOffset" : 921980
        },
        {
            "buffer" : 0,
            "byteLength" : 72,
            "byteOffset" : 922012
        },
        {
            "buffer" : 0,
            "byteLength" : 72,
            "byteOffset" : 922084
        },
        {
            "buffer" : 0,
            "byteLength" : 48,
            "byteOffset" : 922156
        }
    ],
    "buffers" : [
        {
            "byteLength" : 922204,
            "uri" : "data:application/octet-stream;base64,"
        }
    ]
}
